<svg width="2000px" height="2590px"
 viewBox="0.00 0.00 634.04 820.52" xmlns="http://www.w3.org/2000/svg" xmlns:xlink="http://www.w3.org/1999/xlink">
<g id="graph0" class="graph" transform="scale(1.0 1.0) rotate(0) translate(4 816.52)">
<title>ContextMapGraph</title>
<polygon fill="white" stroke="transparent" points="-4,4 -4,-816.52 630.04,-816.52 630.04,4 -4,4"/>
<!-- AutorizacionAutenticacion -->
<g id="node1" class="node">
<title>AutorizacionAutenticacion</title>
<polygon fill="none" stroke="black" stroke-width="2" points="118.18,-726.85 128.63,-725.5 139.25,-724.27 149.98,-723.15 160.8,-722.17 171.66,-721.31 182.52,-720.58 193.34,-720 204.07,-719.56 214.69,-719.26 225.15,-719.1 235.43,-719.1 245.48,-719.24 255.29,-719.53 264.81,-719.97 274.03,-720.55 282.92,-721.28 291.46,-722.14 299.63,-723.15 307.41,-724.29 314.79,-725.57 321.75,-726.97 328.3,-728.49 334.41,-730.12 340.09,-731.87 345.33,-733.72 350.12,-735.66 354.48,-737.69 358.39,-739.8 361.87,-741.98 364.92,-744.23 367.53,-746.53 369.73,-748.88 371.52,-751.26 372.9,-753.68 373.88,-756.12 374.47,-758.57 374.68,-761.03 374.52,-763.49 374,-765.93 373.12,-768.35 371.9,-770.75 370.34,-773.11 368.44,-775.44 366.22,-777.71 363.68,-779.93 360.83,-782.1 357.67,-784.19 354.21,-786.22 350.44,-788.17 346.38,-790.05 342.02,-791.84 337.38,-793.54 332.44,-795.16 327.22,-796.68 321.71,-798.11 315.92,-799.44 309.85,-800.68 303.51,-801.82 296.89,-802.85 290.01,-803.79 282.86,-804.62 275.45,-805.35 267.8,-805.99 259.9,-806.52 251.77,-806.95 243.42,-807.28 234.87,-807.51 226.11,-807.64 217.18,-807.68 208.09,-807.61 198.86,-807.46 189.51,-807.21 180.05,-806.86 170.53,-806.43 160.96,-805.9 151.37,-805.28 141.79,-804.58 132.25,-803.78 122.78,-802.9 113.41,-801.94 104.19,-800.89 95.14,-799.77 86.29,-798.56 77.69,-797.27 69.37,-795.91 61.37,-794.47 53.71,-792.95 46.44,-791.37 39.59,-789.72 33.19,-788 27.27,-786.21 21.86,-784.36 16.99,-782.46 12.69,-780.5 8.98,-778.49 5.88,-776.43 3.41,-774.32 1.59,-772.18 0.42,-770 -0.07,-767.79 0.11,-765.56 0.97,-763.3 2.51,-761.04 4.73,-758.76 7.62,-756.48 11.17,-754.21 15.38,-751.95 20.21,-749.71 25.67,-747.49 31.71,-745.31 38.33,-743.16 45.48,-741.06 53.15,-739.02 61.29,-737.04 69.88,-735.13 78.88,-733.29 88.25,-731.54 97.95,-729.88 107.94,-728.32 118.18,-726.85"/>
<text text-anchor="middle" x="201.57" y="-761.92" font-family="sans-serif" font-size="16.00">AutorizacionAutenticacion</text>
</g>
<!-- Seguridad -->
<g id="node2" class="node">
<title>Seguridad</title>
<polygon fill="none" stroke="black" stroke-width="2" points="264.86,-652.82 260.69,-654.86 256.37,-656.79 251.93,-658.62 247.36,-660.34 242.7,-661.93 237.96,-663.39 233.15,-664.72 228.3,-665.91 223.42,-666.95 218.52,-667.83 213.62,-668.57 208.74,-669.14 203.89,-669.56 199.08,-669.81 194.33,-669.91 189.65,-669.84 185.05,-669.61 180.55,-669.22 176.14,-668.67 171.85,-667.97 167.68,-667.12 163.64,-666.12 159.73,-664.99 155.97,-663.71 152.36,-662.31 148.89,-660.78 145.59,-659.14 142.44,-657.39 139.47,-655.55 136.65,-653.6 134.01,-651.58 131.54,-649.48 129.25,-647.31 127.13,-645.09 125.19,-642.82 123.42,-640.5 121.83,-638.16 120.42,-635.79 119.19,-633.41 118.15,-631.02 117.28,-628.63 116.6,-626.25 116.09,-623.89 115.78,-621.54 115.64,-619.23 115.7,-616.95 115.94,-614.71 116.36,-612.52 116.98,-610.38 117.78,-608.29 118.78,-606.27 119.96,-604.3 121.34,-602.4 122.91,-600.57 124.67,-598.8 126.63,-597.11 128.77,-595.5 131.11,-593.96 133.64,-592.5 136.36,-591.11 139.27,-589.8 142.36,-588.58 145.63,-587.43 149.07,-586.36 152.69,-585.37 156.47,-584.46 160.41,-583.63 164.51,-582.89 168.75,-582.22 173.12,-581.64 177.62,-581.13 182.23,-580.71 186.95,-580.38 191.76,-580.12 196.64,-579.95 201.59,-579.86 206.59,-579.86 211.62,-579.95 216.67,-580.12 221.72,-580.38 226.75,-580.74 231.75,-581.18 236.7,-581.71 241.58,-582.34 246.37,-583.06 251.06,-583.88 255.63,-584.79 260.06,-585.79 264.33,-586.9 268.42,-588.1 272.32,-589.39 276.02,-590.78 279.49,-592.27 282.73,-593.84 285.72,-595.51 288.44,-597.27 290.89,-599.12 293.06,-601.05 294.93,-603.06 296.51,-605.14 297.77,-607.3 298.72,-609.52 299.36,-611.81 299.68,-614.15 299.68,-616.54 299.36,-618.98 298.72,-621.45 297.77,-623.94 296.51,-626.46 294.94,-628.98 293.09,-631.51 290.94,-634.03 288.52,-636.53 285.83,-639.01 282.89,-641.46 279.71,-643.86 276.3,-646.2 272.68,-648.48 268.86,-650.69 264.86,-652.82"/>
<text text-anchor="middle" x="201.57" y="-617.61" font-family="sans-serif" font-size="16.00">Seguridad</text>
</g>
<!-- AutorizacionAutenticacion&#45;&gt;Seguridad -->
<g id="edge1" class="edge">
<title>AutorizacionAutenticacion&#45;&gt;Seguridad</title>
<path fill="none" stroke="black" stroke-width="2" d="M201.57,-719.3C201.57,-703.52 201.57,-685.78 201.57,-669.85"/>
<text text-anchor="middle" x="277.07" y="-691.31" font-family="sans-serif" font-size="12.00"> &#160;&#160;&#160;&#160;&#160;&#160;&#160;&#160;&#160;&#160;&#160;&#160;&#160;&#160;&#160;&#160;&#160;&#160;&#160;&#160;&#160;&#160;&#160;&#160;&#160;&#160;&#160;&#160;&#160;&#160;&#160;&#160;&#160;&#160;&#160;&#160;&#160;&#160;&#160;</text>
<polygon fill="white" stroke="transparent" points="194.57,-660.85 194.57,-677.85 208.57,-677.85 208.57,-660.85 194.57,-660.85"/>
<text text-anchor="start" x="196.57" y="-666.25" font-family="sans-serif" font-size="12.00">D</text>
<polygon fill="white" stroke="transparent" points="194.57,-710.3 194.57,-727.3 208.57,-727.3 208.57,-710.3 194.57,-710.3"/>
<text text-anchor="start" x="196.57" y="-715.7" font-family="sans-serif" font-size="12.00">U</text>
</g>
<!-- GestionPagos -->
<g id="node3" class="node">
<title>GestionPagos</title>
<polygon fill="none" stroke="black" stroke-width="2" points="121.59,-505.57 116.74,-503.48 112.15,-501.33 107.83,-499.12 103.8,-496.85 100.07,-494.54 96.67,-492.2 93.6,-489.83 90.89,-487.44 88.53,-485.05 86.55,-482.65 84.95,-480.25 83.74,-477.87 82.91,-475.51 82.49,-473.18 82.46,-470.88 82.82,-468.62 83.58,-466.41 84.73,-464.24 86.26,-462.13 88.16,-460.08 90.43,-458.09 93.05,-456.18 96.02,-454.33 99.31,-452.55 102.92,-450.85 106.82,-449.23 110.99,-447.69 115.43,-446.23 120.11,-444.86 125,-443.57 130.1,-442.36 135.37,-441.24 140.8,-440.2 146.37,-439.26 152.04,-438.4 157.81,-437.62 163.65,-436.94 169.54,-436.34 175.46,-435.83 181.39,-435.4 187.31,-435.07 193.2,-434.82 199.04,-434.66 204.82,-434.59 210.52,-434.6 216.13,-434.71 221.63,-434.9 227.01,-435.18 232.26,-435.56 237.36,-436.02 242.31,-436.57 247.1,-437.21 251.73,-437.94 256.17,-438.77 260.44,-439.68 264.52,-440.68 268.41,-441.78 272.1,-442.96 275.6,-444.23 278.9,-445.6 281.99,-447.05 284.89,-448.58 287.58,-450.2 290.07,-451.91 292.35,-453.69 294.43,-455.55 296.3,-457.49 297.97,-459.49 299.43,-461.56 300.69,-463.7 301.74,-465.89 302.58,-468.14 303.22,-470.43 303.64,-472.76 303.86,-475.13 303.87,-477.52 303.66,-479.94 303.24,-482.37 302.6,-484.8 301.74,-487.23 300.67,-489.65 299.37,-492.06 297.85,-494.43 296.1,-496.77 294.13,-499.06 291.92,-501.3 289.49,-503.48 286.82,-505.58 283.93,-507.61 280.81,-509.54 277.46,-511.39 273.88,-513.12 270.08,-514.75 266.06,-516.26 261.83,-517.65 257.38,-518.9 252.73,-520.02 247.89,-521.01 242.87,-521.84 237.67,-522.53 232.3,-523.07 226.78,-523.45 221.12,-523.68 215.34,-523.75 209.46,-523.66 203.48,-523.42 197.43,-523.03 191.32,-522.48 185.18,-521.79 179.03,-520.94 172.88,-519.96 166.77,-518.83 160.7,-517.58 154.71,-516.19 148.81,-514.68 143.04,-513.06 137.41,-511.33 131.94,-509.5 126.66,-507.58 121.59,-505.57"/>
<text text-anchor="middle" x="201.57" y="-472.27" font-family="sans-serif" font-size="16.00">GestionPagos</text>
</g>
<!-- Seguridad&#45;&gt;GestionPagos -->
<g id="edge2" class="edge">
<title>Seguridad&#45;&gt;GestionPagos</title>
<path fill="none" stroke="black" stroke-width="2" d="M201.57,-579.72C201.57,-562.17 201.57,-541.55 201.57,-523.42"/>
<text text-anchor="middle" x="277.07" y="-545.31" font-family="sans-serif" font-size="12.00"> &#160;&#160;&#160;&#160;&#160;&#160;&#160;&#160;&#160;&#160;&#160;&#160;&#160;&#160;&#160;&#160;&#160;&#160;&#160;&#160;&#160;&#160;&#160;&#160;&#160;&#160;&#160;&#160;&#160;&#160;&#160;&#160;&#160;&#160;&#160;&#160;&#160;&#160;&#160;</text>
<polygon fill="white" stroke="transparent" points="182.57,-513.42 182.57,-532.42 198.57,-532.42 198.57,-513.42 182.57,-513.42"/>
<polyline fill="none" stroke="black" points="198.57,-513.42 198.57,-532.42 "/>
<text text-anchor="start" x="185.57" y="-519.82" font-family="sans-serif" font-size="12.00">D</text>
<polygon fill="white" stroke="transparent" points="198.57,-513.42 198.57,-532.42 220.57,-532.42 220.57,-513.42 198.57,-513.42"/>
<polygon fill="none" stroke="black" points="198.57,-513.42 198.57,-532.42 220.57,-532.42 220.57,-513.42 198.57,-513.42"/>
<text text-anchor="start" x="201.57" y="-519.82" font-family="sans-serif" font-size="12.00">CF</text>
<polygon fill="white" stroke="transparent" points="183.57,-569.72 183.57,-588.72 199.57,-588.72 199.57,-569.72 183.57,-569.72"/>
<polyline fill="none" stroke="black" points="199.57,-569.72 199.57,-588.72 "/>
<text text-anchor="start" x="186.57" y="-576.12" font-family="sans-serif" font-size="12.00">U</text>
<polygon fill="white" stroke="transparent" points="199.57,-569.72 199.57,-588.72 220.57,-588.72 220.57,-569.72 199.57,-569.72"/>
<polygon fill="none" stroke="black" points="199.57,-569.72 199.57,-588.72 220.57,-588.72 220.57,-569.72 199.57,-569.72"/>
<text text-anchor="start" x="202.57" y="-576.12" font-family="sans-serif" font-size="12.00">PL</text>
</g>
<!-- GestionAlquileres -->
<g id="node4" class="node">
<title>GestionAlquileres</title>
<polygon fill="none" stroke="black" stroke-width="2" points="399.27,-374.7 391.19,-375.69 383.03,-376.55 374.84,-377.3 366.64,-377.91 358.47,-378.4 350.36,-378.75 342.33,-378.96 334.42,-379.04 326.65,-378.98 319.06,-378.78 311.67,-378.45 304.49,-377.97 297.56,-377.35 290.89,-376.6 284.5,-375.71 278.41,-374.7 272.63,-373.55 267.18,-372.28 262.06,-370.88 257.28,-369.37 252.86,-367.75 248.79,-366.03 245.08,-364.2 241.72,-362.29 238.73,-360.28 236.09,-358.2 233.81,-356.04 231.88,-353.82 230.29,-351.54 229.04,-349.22 228.12,-346.85 227.53,-344.45 227.25,-342.03 227.27,-339.59 227.58,-337.14 228.19,-334.69 229.07,-332.25 230.21,-329.82 231.61,-327.42 233.26,-325.05 235.14,-322.72 237.26,-320.43 239.59,-318.19 242.15,-316.01 244.9,-313.9 247.86,-311.85 251.02,-309.88 254.36,-307.99 257.89,-306.18 261.6,-304.46 265.48,-302.84 269.54,-301.3 273.77,-299.87 278.16,-298.54 282.73,-297.31 287.45,-296.18 292.33,-295.16 297.37,-294.25 302.57,-293.44 307.92,-292.75 313.41,-292.16 319.04,-291.69 324.82,-291.32 330.72,-291.06 336.75,-290.9 342.89,-290.86 349.15,-290.91 355.5,-291.08 361.94,-291.34 368.45,-291.71 375.03,-292.17 381.66,-292.74 388.31,-293.39 394.98,-294.15 401.64,-294.99 408.29,-295.92 414.88,-296.94 421.41,-298.05 427.86,-299.24 434.19,-300.5 440.39,-301.85 446.43,-303.27 452.29,-304.76 457.93,-306.33 463.35,-307.96 468.5,-309.65 473.38,-311.41 477.94,-313.22 482.18,-315.09 486.06,-317 489.57,-318.97 492.69,-320.98 495.39,-323.03 497.66,-325.12 499.49,-327.23 500.86,-329.38 501.75,-331.54 502.17,-333.73 502.09,-335.92 501.52,-338.13 500.45,-340.33 498.89,-342.54 496.83,-344.73 494.28,-346.91 491.24,-349.07 487.73,-351.2 483.76,-353.3 479.34,-355.35 474.49,-357.37 469.22,-359.33 463.56,-361.23 457.54,-363.07 451.16,-364.83 444.47,-366.52 437.49,-368.13 430.25,-369.64 422.77,-371.06 415.1,-372.38 407.25,-373.6 399.27,-374.7"/>
<text text-anchor="middle" x="355.57" y="-329.62" font-family="sans-serif" font-size="16.00">GestionAlquileres</text>
</g>
<!-- GestionPagos&#45;&gt;GestionAlquileres -->
<g id="edge3" class="edge">
<title>GestionPagos&#45;&gt;GestionAlquileres</title>
<path fill="none" stroke="black" stroke-width="2" d="M222.55,-434.86C230.52,-421.9 240.41,-408.09 251.57,-397.23 259.81,-389.21 269.26,-381.76 279.02,-375"/>
<text text-anchor="middle" x="327.07" y="-400.63" font-family="sans-serif" font-size="12.00"> &#160;&#160;&#160;&#160;&#160;&#160;&#160;&#160;&#160;&#160;&#160;&#160;&#160;&#160;&#160;&#160;&#160;&#160;&#160;&#160;&#160;&#160;&#160;&#160;&#160;&#160;&#160;&#160;&#160;&#160;&#160;&#160;&#160;&#160;&#160;&#160;&#160;&#160;&#160;</text>
<polygon fill="white" stroke="transparent" points="272.02,-366 272.02,-383 286.02,-383 286.02,-366 272.02,-366"/>
<text text-anchor="start" x="274.02" y="-371.4" font-family="sans-serif" font-size="12.00">D</text>
<polygon fill="white" stroke="transparent" points="215.55,-425.86 215.55,-442.86 229.55,-442.86 229.55,-425.86 215.55,-425.86"/>
<text text-anchor="start" x="217.55" y="-431.26" font-family="sans-serif" font-size="12.00">U</text>
</g>
<!-- GestionClientes -->
<g id="node5" class="node">
<title>GestionClientes</title>
<polygon fill="none" stroke="black" stroke-width="2" points="160.69,-152.11 167.74,-150.79 174.9,-149.59 182.13,-148.51 189.42,-147.56 196.72,-146.74 204.02,-146.06 211.28,-145.52 218.48,-145.12 225.59,-144.86 232.6,-144.75 239.47,-144.79 246.19,-144.97 252.73,-145.31 259.08,-145.79 265.21,-146.41 271.12,-147.18 276.79,-148.1 282.21,-149.15 287.35,-150.33 292.23,-151.65 296.82,-153.09 301.12,-154.65 305.13,-156.32 308.84,-158.11 312.26,-159.99 315.37,-161.97 318.18,-164.03 320.7,-166.18 322.92,-168.39 324.85,-170.67 326.49,-173 327.84,-175.38 328.92,-177.79 329.73,-180.24 330.26,-182.7 330.54,-185.17 330.56,-187.65 330.34,-190.13 329.87,-192.59 329.17,-195.03 328.23,-197.44 327.07,-199.82 325.69,-202.15 324.1,-204.43 322.29,-206.66 320.28,-208.83 318.07,-210.93 315.65,-212.96 313.04,-214.91 310.23,-216.79 307.23,-218.57 304.04,-220.27 300.66,-221.88 297.1,-223.39 293.34,-224.81 289.41,-226.13 285.29,-227.35 280.99,-228.47 276.52,-229.49 271.87,-230.4 267.05,-231.21 262.06,-231.92 256.91,-232.52 251.6,-233.02 246.15,-233.42 240.55,-233.72 234.81,-233.92 228.95,-234.01 222.98,-234.01 216.9,-233.91 210.74,-233.71 204.49,-233.42 198.19,-233.03 191.84,-232.55 185.47,-231.98 179.08,-231.32 172.71,-230.56 166.37,-229.72 160.08,-228.8 153.86,-227.79 147.75,-226.69 141.75,-225.52 135.89,-224.26 130.2,-222.93 124.7,-221.52 119.42,-220.03 114.37,-218.47 109.59,-216.85 105.09,-215.15 100.89,-213.39 97.02,-211.56 93.49,-209.68 90.33,-207.74 87.55,-205.74 85.16,-203.7 83.19,-201.61 81.64,-199.48 80.52,-197.31 79.85,-195.11 79.62,-192.88 79.85,-190.63 80.54,-188.36 81.68,-186.08 83.27,-183.8 85.32,-181.51 87.8,-179.24 90.72,-176.97 94.07,-174.73 97.82,-172.52 101.97,-170.35 106.5,-168.21 111.38,-166.13 116.61,-164.1 122.15,-162.14 127.99,-160.25 134.09,-158.43 140.45,-156.71 147.01,-155.07 153.77,-153.54 160.69,-152.11"/>
<text text-anchor="middle" x="214.57" y="-187.84" font-family="sans-serif" font-size="16.00">GestionClientes</text>
</g>
<!-- GestionAlquileres&#45;&gt;GestionClientes -->
<g id="edge4" class="edge">
<title>GestionAlquileres&#45;&gt;GestionClientes</title>
<path fill="none" stroke="black" stroke-width="2" d="M314.79,-291.99C296.08,-273.44 273.96,-251.51 255.26,-232.98"/>
<text text-anchor="middle" x="324.07" y="-260" font-family="sans-serif" font-size="12.00">Partnership</text>
</g>
<!-- GestionVehiculos -->
<g id="node7" class="node">
<title>GestionVehiculos</title>
<polygon fill="none" stroke="black" stroke-width="2" points="367.19,-188.85 367.6,-185.99 368.37,-183.15 369.49,-180.35 370.96,-177.59 372.78,-174.9 374.94,-172.27 377.43,-169.73 380.26,-167.27 383.41,-164.92 386.87,-162.67 390.63,-160.53 394.69,-158.52 399.03,-156.64 403.65,-154.89 408.52,-153.28 413.63,-151.81 418.98,-150.49 424.55,-149.32 430.31,-148.29 436.26,-147.42 442.38,-146.7 448.65,-146.13 455.06,-145.71 461.58,-145.43 468.2,-145.3 474.89,-145.31 481.65,-145.45 488.45,-145.73 495.27,-146.14 502.1,-146.67 508.9,-147.31 515.68,-148.07 522.4,-148.93 529.05,-149.9 535.6,-150.96 542.05,-152.1 548.37,-153.33 554.55,-154.63 560.56,-156 566.39,-157.43 572.03,-158.92 577.46,-160.47 582.66,-162.06 587.62,-163.7 592.33,-165.37 596.78,-167.08 600.94,-168.82 604.81,-170.59 608.39,-172.38 611.65,-174.19 614.6,-176.02 617.22,-177.86 619.51,-179.72 621.45,-181.59 623.06,-183.47 624.31,-185.36 625.22,-187.26 625.77,-189.16 625.96,-191.07 625.81,-192.98 625.29,-194.89 624.43,-196.81 623.22,-198.72 621.66,-200.63 619.76,-202.54 617.53,-204.44 614.97,-206.33 612.08,-208.22 608.89,-210.09 605.39,-211.94 601.59,-213.77 597.51,-215.58 593.16,-217.37 588.54,-219.11 583.68,-220.83 578.59,-222.5 573.27,-224.12 567.74,-225.69 562.03,-227.2 556.14,-228.64 550.09,-230.01 543.89,-231.31 537.57,-232.52 531.13,-233.63 524.61,-234.65 518.01,-235.57 511.35,-236.38 504.65,-237.07 497.93,-237.63 491.2,-238.07 484.49,-238.38 477.81,-238.54 471.18,-238.57 464.62,-238.45 458.15,-238.18 451.77,-237.75 445.52,-237.18 439.41,-236.45 433.44,-235.57 427.65,-234.53 422.04,-233.34 416.64,-231.99 411.44,-230.5 406.48,-228.86 401.76,-227.09 397.3,-225.18 393.1,-223.14 389.19,-220.98 385.56,-218.7 382.24,-216.32 379.23,-213.84 376.53,-211.27 374.16,-208.62 372.13,-205.91 370.43,-203.14 369.08,-200.33 368.08,-197.48 367.43,-194.61 367.13,-191.73 367.19,-188.85"/>
<text text-anchor="middle" x="496.57" y="-187.84" font-family="sans-serif" font-size="16.00">GestionVehiculos</text>
</g>
<!-- GestionAlquileres&#45;&gt;GestionVehiculos -->
<g id="edge5" class="edge">
<title>GestionAlquileres&#45;&gt;GestionVehiculos</title>
<path fill="none" stroke="black" stroke-width="2" d="M394.48,-293.85C412,-276.48 432.81,-255.85 451.06,-237.76"/>
<text text-anchor="middle" x="464.07" y="-260" font-family="sans-serif" font-size="12.00">Partnership</text>
</g>
<!-- CuentaCliente -->
<g id="node6" class="node">
<title>CuentaCliente</title>
<polygon fill="none" stroke="black" stroke-width="2" points="147.79,-12.58 153.65,-10.85 159.66,-9.22 165.8,-7.72 172.03,-6.33 178.35,-5.07 184.71,-3.95 191.11,-2.96 197.51,-2.12 203.9,-1.42 210.26,-0.88 216.56,-0.48 222.78,-0.24 228.91,-0.16 234.92,-0.23 240.81,-0.46 246.55,-0.84 252.14,-1.38 257.55,-2.07 262.78,-2.9 267.82,-3.88 272.66,-5 277.28,-6.26 281.69,-7.65 285.87,-9.16 289.83,-10.78 293.55,-12.52 297.04,-14.36 300.29,-16.3 303.3,-18.33 306.07,-20.43 308.61,-22.61 310.9,-24.85 312.95,-27.14 314.77,-29.48 316.36,-31.85 317.71,-34.25 318.83,-36.67 319.72,-39.11 320.38,-41.54 320.82,-43.97 321.04,-46.39 321.03,-48.78 320.81,-51.15 320.36,-53.48 319.7,-55.77 318.82,-58.02 317.73,-60.21 316.42,-62.35 314.9,-64.42 313.16,-66.42 311.21,-68.36 309.05,-70.22 306.67,-72 304.09,-73.7 301.28,-75.33 298.27,-76.86 295.05,-78.31 291.62,-79.67 287.98,-80.95 284.13,-82.13 280.08,-83.23 275.84,-84.23 271.4,-85.14 266.77,-85.97 261.96,-86.7 256.97,-87.34 251.82,-87.89 246.51,-88.35 241.05,-88.72 235.45,-89.01 229.72,-89.2 223.89,-89.3 217.95,-89.32 211.94,-89.25 205.85,-89.09 199.73,-88.84 193.57,-88.5 187.4,-88.08 181.24,-87.57 175.11,-86.97 169.03,-86.29 163.03,-85.51 157.12,-84.65 151.32,-83.7 145.67,-82.67 140.19,-81.55 134.88,-80.34 129.79,-79.05 124.92,-77.68 120.3,-76.22 115.95,-74.68 111.89,-73.06 108.14,-71.36 104.71,-69.58 101.63,-67.73 98.9,-65.81 96.54,-63.83 94.55,-61.78 92.96,-59.67 91.77,-57.5 90.98,-55.29 90.6,-53.03 90.63,-50.73 91.08,-48.4 91.93,-46.04 93.19,-43.66 94.86,-41.26 96.92,-38.86 99.37,-36.47 102.2,-34.08 105.39,-31.71 108.94,-29.37 112.81,-27.06 117.01,-24.79 121.51,-22.58 126.29,-20.42 131.32,-18.34 136.6,-16.33 142.1,-14.41 147.79,-12.58"/>
<text text-anchor="middle" x="214.57" y="-44.04" font-family="sans-serif" font-size="16.00">CuentaCliente</text>
</g>
<!-- GestionClientes&#45;&gt;CuentaCliente -->
<g id="edge6" class="edge">
<title>GestionClientes&#45;&gt;CuentaCliente</title>
<path fill="none" stroke="black" stroke-width="2" d="M214.57,-144.99C214.57,-127.18 214.57,-106.92 214.57,-89.61"/>
<text text-anchor="middle" x="290.07" y="-117.08" font-family="sans-serif" font-size="12.00"> &#160;&#160;&#160;&#160;&#160;&#160;&#160;&#160;&#160;&#160;&#160;&#160;&#160;&#160;&#160;&#160;&#160;&#160;&#160;&#160;&#160;&#160;&#160;&#160;&#160;&#160;&#160;&#160;&#160;&#160;&#160;&#160;&#160;&#160;&#160;&#160;&#160;&#160;&#160;</text>
<polygon fill="white" stroke="transparent" points="207.57,-80.61 207.57,-97.61 221.57,-97.61 221.57,-80.61 207.57,-80.61"/>
<text text-anchor="start" x="209.57" y="-86.01" font-family="sans-serif" font-size="12.00">D</text>
<polygon fill="white" stroke="transparent" points="207.57,-135.99 207.57,-152.99 221.57,-152.99 221.57,-135.99 207.57,-135.99"/>
<text text-anchor="start" x="209.57" y="-141.39" font-family="sans-serif" font-size="12.00">U</text>
</g>
<!-- CatalogoAutos -->
<g id="node8" class="node">
<title>CatalogoAutos</title>
<polygon fill="none" stroke="black" stroke-width="2" points="386.35,-507.8 380.85,-505.86 375.6,-503.84 370.62,-501.75 365.94,-499.6 361.58,-497.39 357.55,-495.15 353.87,-492.87 350.56,-490.56 347.63,-488.23 345.09,-485.89 342.96,-483.55 341.24,-481.2 339.94,-478.87 339.06,-476.55 338.61,-474.25 338.58,-471.98 338.98,-469.75 339.8,-467.55 341.03,-465.4 342.67,-463.3 344.71,-461.25 347.13,-459.26 349.93,-457.33 353.09,-455.46 356.59,-453.66 360.42,-451.93 364.56,-450.28 368.99,-448.69 373.68,-447.19 378.63,-445.76 383.8,-444.41 389.17,-443.14 394.73,-441.95 400.44,-440.85 406.29,-439.83 412.25,-438.89 418.3,-438.04 424.42,-437.28 430.59,-436.6 436.78,-436.01 442.98,-435.51 449.17,-435.09 455.32,-434.77 461.42,-434.53 467.46,-434.39 473.41,-434.33 479.26,-434.37 485,-434.5 490.62,-434.72 496.11,-435.04 501.45,-435.45 506.63,-435.96 511.66,-436.56 516.51,-437.25 521.19,-438.05 525.69,-438.93 530,-439.92 534.13,-441 538.06,-442.17 541.8,-443.44 545.34,-444.8 548.68,-446.25 551.83,-447.8 554.77,-449.43 557.51,-451.14 560.05,-452.94 562.39,-454.82 564.52,-456.78 566.44,-458.81 568.16,-460.91 569.68,-463.07 570.98,-465.29 572.07,-467.56 572.95,-469.88 573.61,-472.24 574.06,-474.63 574.28,-477.05 574.28,-479.49 574.05,-481.94 573.59,-484.39 572.89,-486.84 571.96,-489.28 570.78,-491.69 569.36,-494.08 567.69,-496.43 565.77,-498.72 563.59,-500.97 561.16,-503.15 558.47,-505.25 555.52,-507.28 552.31,-509.21 548.84,-511.05 545.12,-512.78 541.14,-514.4 536.92,-515.91 532.45,-517.29 527.74,-518.54 522.79,-519.66 517.63,-520.63 512.25,-521.47 506.67,-522.16 500.9,-522.69 494.96,-523.08 488.86,-523.32 482.62,-523.4 476.25,-523.33 469.77,-523.11 463.22,-522.73 456.59,-522.21 449.93,-521.54 443.25,-520.73 436.57,-519.78 429.92,-518.7 423.33,-517.48 416.82,-516.14 410.42,-514.68 404.14,-513.12 398.02,-511.44 392.08,-509.67 386.35,-507.8"/>
<text text-anchor="middle" x="465.57" y="-472.27" font-family="sans-serif" font-size="16.00">CatalogoAutos</text>
</g>
<!-- CatalogoAutos&#45;&gt;GestionAlquileres -->
<g id="edge7" class="edge">
<title>CatalogoAutos&#45;&gt;GestionAlquileres</title>
<path fill="none" stroke="black" stroke-width="2" d="M434.93,-435.89C420.44,-417.36 403.12,-395.21 388.36,-376.34"/>
<text text-anchor="middle" x="489.07" y="-400.63" font-family="sans-serif" font-size="12.00"> &#160;&#160;&#160;&#160;&#160;&#160;&#160;&#160;&#160;&#160;&#160;&#160;&#160;&#160;&#160;&#160;&#160;&#160;&#160;&#160;&#160;&#160;&#160;&#160;&#160;&#160;&#160;&#160;&#160;&#160;&#160;&#160;&#160;&#160;&#160;&#160;&#160;&#160;&#160;</text>
<polygon fill="white" stroke="transparent" points="381.36,-367.34 381.36,-384.34 395.36,-384.34 395.36,-367.34 381.36,-367.34"/>
<text text-anchor="start" x="383.36" y="-372.74" font-family="sans-serif" font-size="12.00">D</text>
<polygon fill="white" stroke="transparent" points="410.93,-425.89 410.93,-444.89 426.93,-444.89 426.93,-425.89 410.93,-425.89"/>
<polyline fill="none" stroke="black" points="426.93,-425.89 426.93,-444.89 "/>
<text text-anchor="start" x="413.93" y="-432.29" font-family="sans-serif" font-size="12.00">U</text>
<polygon fill="white" stroke="transparent" points="426.93,-425.89 426.93,-444.89 459.93,-444.89 459.93,-425.89 426.93,-425.89"/>
<polygon fill="none" stroke="black" points="426.93,-425.89 426.93,-444.89 459.93,-444.89 459.93,-425.89 426.93,-425.89"/>
<text text-anchor="start" x="429.93" y="-432.29" font-family="sans-serif" font-size="12.00">OHS</text>
</g>
</g>
</svg>
