<svg width="2000px" height="2711px"
 viewBox="0.00 0.00 610.31 826.71" xmlns="http://www.w3.org/2000/svg" xmlns:xlink="http://www.w3.org/1999/xlink">
<g id="graph0" class="graph" transform="scale(1.0 1.0) rotate(0) translate(4 822.71)">
<title>ContextMapGraph</title>
<polygon fill="white" stroke="transparent" points="-4,4 -4,-822.71 606.31,-822.71 606.31,4 -4,4"/>
<!-- AutorizacionAutenticacion -->
<g id="node1" class="node">
<title>AutorizacionAutenticacion</title>
<polygon fill="none" stroke="black" stroke-width="2" points="341.94,-794.1 335.51,-796.51 328.71,-798.83 321.55,-801.07 314.07,-803.2 306.29,-805.22 298.24,-807.13 289.95,-808.91 281.44,-810.55 272.75,-812.06 263.9,-813.42 254.92,-814.63 245.83,-815.68 236.67,-816.58 227.45,-817.31 218.21,-817.88 208.96,-818.28 199.74,-818.52 190.56,-818.59 181.45,-818.5 172.43,-818.25 163.51,-817.84 154.72,-817.28 146.08,-816.56 137.6,-815.69 129.3,-814.69 121.19,-813.55 113.29,-812.28 105.62,-810.89 98.18,-809.39 91,-807.78 84.07,-806.07 77.42,-804.26 71.06,-802.38 64.98,-800.42 59.21,-798.4 53.76,-796.32 48.63,-794.19 43.83,-792.02 39.37,-789.82 35.26,-787.6 31.51,-785.35 28.12,-783.1 25.1,-780.84 22.46,-778.59 20.21,-776.34 18.36,-774.12 16.9,-771.91 15.86,-769.72 15.22,-767.57 15.01,-765.46 15.22,-763.38 15.85,-761.34 16.92,-759.34 18.43,-757.4 20.38,-755.5 22.76,-753.65 25.59,-751.86 28.85,-750.12 32.56,-748.44 36.71,-746.82 41.28,-745.25 46.29,-743.74 51.72,-742.29 57.57,-740.9 63.82,-739.57 70.46,-738.3 77.49,-737.1 84.88,-735.96 92.63,-734.88 100.71,-733.87 109.11,-732.93 117.8,-732.05 126.77,-731.25 135.98,-730.51 145.42,-729.85 155.06,-729.27 164.87,-728.77 174.82,-728.35 184.87,-728.01 195.01,-727.75 205.19,-727.59 215.38,-727.52 225.56,-727.54 235.68,-727.66 245.7,-727.88 255.61,-728.21 265.36,-728.64 274.91,-729.17 284.23,-729.82 293.3,-730.58 302.07,-731.45 310.52,-732.43 318.62,-733.53 326.33,-734.74 333.63,-736.07 340.49,-737.52 346.88,-739.07 352.79,-740.73 358.2,-742.51 363.08,-744.38 367.41,-746.36 371.2,-748.44 374.41,-750.61 377.05,-752.86 379.1,-755.19 380.56,-757.6 381.43,-760.07 381.71,-762.6 381.4,-765.19 380.5,-767.81 379.03,-770.46 376.99,-773.14 374.39,-775.83 371.24,-778.51 367.57,-781.2 363.39,-783.86 358.71,-786.49 353.56,-789.08 347.97,-791.62 341.94,-794.1"/>
<text text-anchor="middle" x="190.74" y="-766.02" font-family="sans-serif" font-size="16.00">AutorizacionAutenticacion</text>
</g>
<!-- Seguridad -->
<g id="node2" class="node">
<title>Seguridad</title>
<polygon fill="none" stroke="black" stroke-width="2" points="120.72,-651.74 116.9,-649.54 113.3,-647.28 109.93,-644.97 106.8,-642.6 103.94,-640.21 101.35,-637.78 99.05,-635.33 97.03,-632.88 95.33,-630.42 93.93,-627.97 92.85,-625.53 92.1,-623.11 91.66,-620.73 91.56,-618.37 91.78,-616.06 92.33,-613.8 93.21,-611.59 94.4,-609.44 95.9,-607.36 97.72,-605.34 99.83,-603.39 102.23,-601.52 104.91,-599.73 107.85,-598.01 111.04,-596.38 114.48,-594.84 118.13,-593.38 122,-592.01 126.06,-590.73 130.29,-589.53 134.67,-588.43 139.2,-587.42 143.85,-586.49 148.6,-585.66 153.44,-584.92 158.34,-584.26 163.29,-583.7 168.28,-583.22 173.28,-582.84 178.28,-582.54 183.26,-582.33 188.2,-582.2 193.1,-582.17 197.94,-582.22 202.7,-582.35 207.37,-582.58 211.95,-582.89 216.41,-583.29 220.75,-583.77 224.97,-584.35 229.05,-585 232.98,-585.75 236.76,-586.58 240.39,-587.51 243.85,-588.51 247.15,-589.61 250.28,-590.79 253.24,-592.06 256.02,-593.41 258.63,-594.85 261.06,-596.37 263.31,-597.98 265.39,-599.66 267.28,-601.43 269,-603.27 270.53,-605.18 271.89,-607.16 273.06,-609.21 274.06,-611.33 274.88,-613.5 275.52,-615.72 275.98,-617.99 276.26,-620.31 276.37,-622.66 276.29,-625.04 276.04,-627.45 275.6,-629.87 274.99,-632.3 274.19,-634.73 273.21,-637.16 272.05,-639.57 270.71,-641.95 269.18,-644.31 267.47,-646.62 265.57,-648.88 263.49,-651.08 261.22,-653.21 258.76,-655.27 256.13,-657.24 253.31,-659.12 250.31,-660.9 247.13,-662.57 243.78,-664.12 240.26,-665.56 236.57,-666.86 232.72,-668.02 228.72,-669.05 224.57,-669.93 220.28,-670.67 215.86,-671.25 211.32,-671.67 206.67,-671.94 201.92,-672.05 197.08,-672 192.17,-671.79 187.2,-671.42 182.19,-670.89 177.15,-670.21 172.09,-669.38 167.04,-668.41 162.02,-667.28 157.03,-666.02 152.1,-664.63 147.24,-663.11 142.48,-661.47 137.83,-659.72 133.31,-657.86 128.94,-655.91 124.74,-653.87 120.72,-651.74"/>
<text text-anchor="middle" x="190.74" y="-620.01" font-family="sans-serif" font-size="16.00">Seguridad</text>
</g>
<!-- AutorizacionAutenticacion&#45;&gt;Seguridad -->
<g id="edge1" class="edge">
<title>AutorizacionAutenticacion&#45;&gt;Seguridad</title>
<path fill="none" stroke="black" stroke-width="2" d="M190.74,-727.55C190.74,-710.18 190.74,-689.87 190.74,-671.92"/>
<text text-anchor="middle" x="266.24" y="-693.33" font-family="sans-serif" font-size="12.00"> &#160;&#160;&#160;&#160;&#160;&#160;&#160;&#160;&#160;&#160;&#160;&#160;&#160;&#160;&#160;&#160;&#160;&#160;&#160;&#160;&#160;&#160;&#160;&#160;&#160;&#160;&#160;&#160;&#160;&#160;&#160;&#160;&#160;&#160;&#160;&#160;&#160;&#160;&#160;</text>
<polygon fill="white" stroke="transparent" points="183.74,-662.92 183.74,-679.92 197.74,-679.92 197.74,-662.92 183.74,-662.92"/>
<text text-anchor="start" x="185.74" y="-668.32" font-family="sans-serif" font-size="12.00">D</text>
<polygon fill="white" stroke="transparent" points="183.74,-718.55 183.74,-735.55 197.74,-735.55 197.74,-718.55 183.74,-718.55"/>
<text text-anchor="start" x="185.74" y="-723.95" font-family="sans-serif" font-size="12.00">U</text>
</g>
<!-- GestionPagos -->
<g id="node3" class="node">
<title>GestionPagos</title>
<polygon fill="none" stroke="black" stroke-width="2" points="82.82,-474.81 83.53,-471.97 84.54,-469.15 85.84,-466.38 87.43,-463.67 89.3,-461.02 91.45,-458.44 93.87,-455.95 96.55,-453.56 99.49,-451.27 102.67,-449.09 106.1,-447.03 109.76,-445.1 113.64,-443.3 117.72,-441.64 122.01,-440.12 126.48,-438.75 131.13,-437.53 135.94,-436.46 140.9,-435.55 145.99,-434.78 151.21,-434.17 156.53,-433.72 161.94,-433.41 167.43,-433.25 172.99,-433.24 178.59,-433.36 184.23,-433.63 189.88,-434.02 195.54,-434.55 201.18,-435.2 206.8,-435.96 212.37,-436.83 217.88,-437.81 223.32,-438.89 228.67,-440.06 233.92,-441.31 239.05,-442.64 244.05,-444.05 248.9,-445.52 253.6,-447.05 258.13,-448.64 262.47,-450.27 266.62,-451.95 270.56,-453.66 274.28,-455.42 277.78,-457.2 281.04,-459 284.05,-460.83 286.81,-462.67 289.31,-464.53 291.54,-466.41 293.49,-468.29 295.16,-470.18 296.55,-472.07 297.65,-473.98 298.46,-475.88 298.97,-477.78 299.18,-479.69 299.1,-481.59 298.72,-483.49 298.04,-485.38 297.07,-487.27 295.81,-489.16 294.26,-491.03 292.42,-492.9 290.31,-494.75 287.92,-496.59 285.26,-498.42 282.34,-500.22 279.17,-502.01 275.76,-503.77 272.11,-505.5 268.24,-507.19 264.15,-508.85 259.86,-510.47 255.38,-512.04 250.72,-513.56 245.89,-515.03 240.91,-516.43 235.79,-517.76 230.55,-519.02 225.2,-520.2 219.75,-521.29 214.22,-522.29 208.63,-523.19 202.98,-523.99 197.31,-524.67 191.61,-525.24 185.91,-525.69 180.23,-526 174.57,-526.19 168.96,-526.24 163.41,-526.15 157.93,-525.91 152.55,-525.53 147.27,-524.99 142.11,-524.31 137.09,-523.48 132.21,-522.49 127.5,-521.35 122.96,-520.07 118.61,-518.64 114.46,-517.06 110.51,-515.34 106.8,-513.49 103.31,-511.51 100.06,-509.4 97.06,-507.18 94.32,-504.85 91.85,-502.42 89.65,-499.9 87.73,-497.3 86.09,-494.62 84.74,-491.88 83.68,-489.1 82.91,-486.27 82.44,-483.42 82.27,-480.55 82.39,-477.68 82.82,-474.81"/>
<text text-anchor="middle" x="190.74" y="-476.08" font-family="sans-serif" font-size="16.00">GestionPagos</text>
</g>
<!-- Seguridad&#45;&gt;GestionPagos -->
<g id="edge2" class="edge">
<title>Seguridad&#45;&gt;GestionPagos</title>
<path fill="none" stroke="black" stroke-width="2" d="M190.74,-582.14C190.74,-564.44 190.74,-543.66 190.74,-525.54"/>
<text text-anchor="middle" x="266.24" y="-548.1" font-family="sans-serif" font-size="12.00"> &#160;&#160;&#160;&#160;&#160;&#160;&#160;&#160;&#160;&#160;&#160;&#160;&#160;&#160;&#160;&#160;&#160;&#160;&#160;&#160;&#160;&#160;&#160;&#160;&#160;&#160;&#160;&#160;&#160;&#160;&#160;&#160;&#160;&#160;&#160;&#160;&#160;&#160;&#160;</text>
<polygon fill="white" stroke="transparent" points="171.74,-515.54 171.74,-534.54 187.74,-534.54 187.74,-515.54 171.74,-515.54"/>
<polyline fill="none" stroke="black" points="187.74,-515.54 187.74,-534.54 "/>
<text text-anchor="start" x="174.74" y="-521.94" font-family="sans-serif" font-size="12.00">D</text>
<polygon fill="white" stroke="transparent" points="187.74,-515.54 187.74,-534.54 209.74,-534.54 209.74,-515.54 187.74,-515.54"/>
<polygon fill="none" stroke="black" points="187.74,-515.54 187.74,-534.54 209.74,-534.54 209.74,-515.54 187.74,-515.54"/>
<text text-anchor="start" x="190.74" y="-521.94" font-family="sans-serif" font-size="12.00">CF</text>
<polygon fill="white" stroke="transparent" points="172.74,-572.14 172.74,-591.14 188.74,-591.14 188.74,-572.14 172.74,-572.14"/>
<polyline fill="none" stroke="black" points="188.74,-572.14 188.74,-591.14 "/>
<text text-anchor="start" x="175.74" y="-578.54" font-family="sans-serif" font-size="12.00">U</text>
<polygon fill="white" stroke="transparent" points="188.74,-572.14 188.74,-591.14 209.74,-591.14 209.74,-572.14 188.74,-572.14"/>
<polygon fill="none" stroke="black" points="188.74,-572.14 188.74,-591.14 209.74,-591.14 209.74,-572.14 188.74,-572.14"/>
<text text-anchor="start" x="191.74" y="-578.54" font-family="sans-serif" font-size="12.00">PL</text>
</g>
<!-- GestionAlquileres -->
<g id="node4" class="node">
<title>GestionAlquileres</title>
<polygon fill="none" stroke="black" stroke-width="2" points="196.03,-318.63 199.23,-315.97 202.74,-313.36 206.56,-310.84 210.67,-308.39 215.05,-306.04 219.7,-303.8 224.58,-301.66 229.7,-299.65 235.03,-297.77 240.56,-296.02 246.27,-294.42 252.14,-292.96 258.16,-291.66 264.31,-290.51 270.57,-289.53 276.92,-288.7 283.36,-288.04 289.86,-287.54 296.41,-287.21 302.98,-287.04 309.57,-287.04 316.16,-287.19 322.73,-287.49 329.27,-287.95 335.77,-288.56 342.2,-289.31 348.56,-290.19 354.82,-291.2 360.99,-292.34 367.03,-293.59 372.95,-294.96 378.72,-296.42 384.34,-297.98 389.79,-299.63 395.07,-301.35 400.15,-303.15 405.03,-305 409.69,-306.92 414.14,-308.88 418.34,-310.88 422.31,-312.91 426.02,-314.97 429.46,-317.06 432.63,-319.15 435.53,-321.26 438.13,-323.36 440.43,-325.47 442.43,-327.57 444.12,-329.66 445.49,-331.73 446.53,-333.79 447.25,-335.82 447.63,-337.83 447.67,-339.82 447.38,-341.77 446.74,-343.7 445.75,-345.59 444.42,-347.46 442.74,-349.28 440.72,-351.07 438.36,-352.83 435.66,-354.54 432.62,-356.22 429.25,-357.86 425.56,-359.45 421.55,-361.01 417.24,-362.52 412.62,-363.98 407.72,-365.4 402.54,-366.77 397.09,-368.08 391.4,-369.35 385.47,-370.55 379.32,-371.7 372.97,-372.78 366.44,-373.8 359.74,-374.75 352.89,-375.62 345.92,-376.42 338.84,-377.14 331.68,-377.77 324.45,-378.31 317.19,-378.76 309.91,-379.1 302.63,-379.35 295.39,-379.49 288.19,-379.52 281.08,-379.43 274.06,-379.22 267.16,-378.9 260.41,-378.44 253.82,-377.87 247.42,-377.16 241.23,-376.32 235.27,-375.35 229.55,-374.25 224.1,-373.01 218.93,-371.65 214.06,-370.15 209.5,-368.53 205.28,-366.78 201.39,-364.92 197.85,-362.93 194.68,-360.84 191.88,-358.63 189.46,-356.33 187.42,-353.94 185.76,-351.46 184.5,-348.91 183.64,-346.29 183.17,-343.61 183.09,-340.88 183.4,-338.11 184.09,-335.32 185.17,-332.52 186.62,-329.7 188.44,-326.9 190.63,-324.11 193.16,-321.35 196.03,-318.63"/>
<text text-anchor="middle" x="317.74" y="-331.75" font-family="sans-serif" font-size="16.00">GestionAlquileres</text>
</g>
<!-- GestionPagos&#45;&gt;GestionAlquileres -->
<g id="edge3" class="edge">
<title>GestionPagos&#45;&gt;GestionAlquileres</title>
<path fill="none" stroke="black" stroke-width="2" d="M208.76,-436.09C214.79,-424.39 222.18,-412.15 230.74,-402.06 237.95,-393.54 246.45,-385.48 255.28,-378.1"/>
<text text-anchor="middle" x="306.24" y="-405.46" font-family="sans-serif" font-size="12.00"> &#160;&#160;&#160;&#160;&#160;&#160;&#160;&#160;&#160;&#160;&#160;&#160;&#160;&#160;&#160;&#160;&#160;&#160;&#160;&#160;&#160;&#160;&#160;&#160;&#160;&#160;&#160;&#160;&#160;&#160;&#160;&#160;&#160;&#160;&#160;&#160;&#160;&#160;&#160;</text>
<polygon fill="white" stroke="transparent" points="248.28,-369.1 248.28,-386.1 262.28,-386.1 262.28,-369.1 248.28,-369.1"/>
<text text-anchor="start" x="250.28" y="-374.5" font-family="sans-serif" font-size="12.00">D</text>
<polygon fill="white" stroke="transparent" points="201.76,-427.09 201.76,-444.09 215.76,-444.09 215.76,-427.09 201.76,-427.09"/>
<text text-anchor="start" x="203.76" y="-432.49" font-family="sans-serif" font-size="12.00">U</text>
</g>
<!-- GestionClientes -->
<g id="node5" class="node">
<title>GestionClientes</title>
<polygon fill="none" stroke="black" stroke-width="2" points="55.9,-184.32 56.97,-181.47 58.37,-178.65 60.09,-175.89 62.12,-173.18 64.46,-170.54 67.11,-167.98 70.04,-165.51 73.26,-163.14 76.76,-160.88 80.53,-158.74 84.55,-156.72 88.81,-154.83 93.31,-153.07 98.03,-151.46 102.95,-150 108.07,-148.68 113.37,-147.52 118.84,-146.51 124.45,-145.66 130.21,-144.96 136.08,-144.42 142.06,-144.04 148.12,-143.81 154.26,-143.72 160.46,-143.79 166.69,-144 172.95,-144.34 179.22,-144.82 185.47,-145.43 191.7,-146.16 197.89,-147.01 204.02,-147.97 210.07,-149.03 216.03,-150.19 221.88,-151.44 227.61,-152.77 233.2,-154.18 238.64,-155.67 243.91,-157.21 249,-158.82 253.89,-160.48 258.57,-162.18 263.04,-163.93 267.27,-165.71 271.25,-167.52 274.98,-169.36 278.44,-171.22 281.62,-173.1 284.52,-175 287.12,-176.9 289.43,-178.82 291.42,-180.74 293.11,-182.66 294.47,-184.59 295.51,-186.52 296.22,-188.44 296.61,-190.36 296.67,-192.28 296.39,-194.19 295.78,-196.1 294.85,-197.99 293.58,-199.88 291.99,-201.76 290.08,-203.62 287.85,-205.47 285.32,-207.31 282.47,-209.12 279.34,-210.92 275.91,-212.69 272.2,-214.44 268.22,-216.16 263.99,-217.85 259.51,-219.5 254.79,-221.11 249.85,-222.68 244.7,-224.2 239.36,-225.66 233.83,-227.06 228.15,-228.4 222.31,-229.67 216.34,-230.86 210.26,-231.97 204.08,-232.99 197.82,-233.92 191.5,-234.75 185.13,-235.47 178.73,-236.07 172.33,-236.56 165.93,-236.93 159.56,-237.17 153.24,-237.28 146.97,-237.25 140.79,-237.08 134.71,-236.76 128.75,-236.3 122.91,-235.69 117.23,-234.93 111.71,-234.02 106.37,-232.96 101.22,-231.75 96.28,-230.39 91.57,-228.89 87.09,-227.25 82.87,-225.46 78.9,-223.55 75.2,-221.51 71.78,-219.35 68.66,-217.07 65.83,-214.69 63.31,-212.21 61.1,-209.64 59.2,-207 57.64,-204.28 56.39,-201.51 55.48,-198.7 54.9,-195.84 54.65,-192.97 54.74,-190.08 55.15,-187.19 55.9,-184.32"/>
<text text-anchor="middle" x="175.74" y="-187.14" font-family="sans-serif" font-size="16.00">GestionClientes</text>
</g>
<!-- GestionAlquileres&#45;&gt;GestionClientes -->
<g id="edge4" class="edge">
<title>GestionAlquileres&#45;&gt;GestionClientes</title>
<path fill="none" stroke="black" stroke-width="2" d="M272.42,-289.03C253.91,-270.45 232.71,-249.16 214.89,-231.26"/>
<text text-anchor="middle" x="286.24" y="-259.44" font-family="sans-serif" font-size="12.00">Partnership</text>
</g>
<!-- GestionVehiculos -->
<g id="node7" class="node">
<title>GestionVehiculos</title>
<polygon fill="none" stroke="black" stroke-width="2" points="488.71,-233.76 480.49,-234.47 472.24,-235.05 463.99,-235.51 455.78,-235.84 447.63,-236.04 439.58,-236.11 431.66,-236.04 423.89,-235.85 416.31,-235.52 408.94,-235.05 401.81,-234.46 394.94,-233.73 388.34,-232.87 382.05,-231.88 376.07,-230.77 370.43,-229.54 365.13,-228.19 360.19,-226.73 355.61,-225.16 351.4,-223.48 347.57,-221.71 344.12,-219.84 341.06,-217.88 338.37,-215.85 336.06,-213.74 334.13,-211.56 332.56,-209.32 331.36,-207.03 330.51,-204.7 330.01,-202.33 329.85,-199.93 330.01,-197.51 330.48,-195.07 331.26,-192.63 332.33,-190.19 333.68,-187.76 335.29,-185.35 337.16,-182.97 339.28,-180.61 341.63,-178.3 344.19,-176.03 346.97,-173.81 349.95,-171.66 353.13,-169.57 356.48,-167.55 360.01,-165.6 363.71,-163.74 367.56,-161.96 371.58,-160.28 375.74,-158.69 380.05,-157.2 384.49,-155.8 389.08,-154.52 393.79,-153.34 398.64,-152.27 403.61,-151.3 408.7,-150.45 413.92,-149.72 419.25,-149.09 424.7,-148.59 430.26,-148.19 435.92,-147.91 441.68,-147.74 447.54,-147.69 453.49,-147.74 459.52,-147.91 465.62,-148.19 471.79,-148.57 478.01,-149.06 484.27,-149.66 490.56,-150.35 496.87,-151.15 503.18,-152.04 509.47,-153.02 515.73,-154.1 521.94,-155.26 528.08,-156.51 534.13,-157.85 540.07,-159.26 545.88,-160.75 551.53,-162.31 557,-163.95 562.26,-165.64 567.31,-167.41 572.1,-169.22 576.62,-171.1 580.84,-173.03 584.75,-175 588.32,-177.02 591.53,-179.07 594.35,-181.16 596.78,-183.28 598.79,-185.42 600.37,-187.59 601.5,-189.77 602.17,-191.96 602.37,-194.16 602.1,-196.36 601.35,-198.56 600.11,-200.74 598.38,-202.91 596.16,-205.06 593.47,-207.19 590.3,-209.28 586.66,-211.33 582.56,-213.34 578.02,-215.3 573.06,-217.2 567.69,-219.05 561.93,-220.83 555.8,-222.53 549.33,-224.16 542.55,-225.7 535.48,-227.16 528.15,-228.52 520.59,-229.78 512.83,-230.94 504.91,-232 496.86,-232.94 488.71,-233.76"/>
<text text-anchor="middle" x="458.74" y="-187.14" font-family="sans-serif" font-size="16.00">GestionVehiculos</text>
</g>
<!-- GestionAlquileres&#45;&gt;GestionVehiculos -->
<g id="edge5" class="edge">
<title>GestionAlquileres&#45;&gt;GestionVehiculos</title>
<path fill="none" stroke="black" stroke-width="2" d="M360.04,-291.76C377.56,-274.04 397.87,-253.5 415.49,-235.68"/>
<text text-anchor="middle" x="426.24" y="-259.44" font-family="sans-serif" font-size="12.00">Partnership</text>
</g>
<!-- CuentaCliente -->
<g id="node6" class="node">
<title>CuentaCliente</title>
<polygon fill="none" stroke="black" stroke-width="2" points="236.1,-84.46 229.94,-86.03 223.64,-87.49 217.24,-88.83 210.77,-90.04 204.24,-91.13 197.67,-92.08 191.11,-92.89 184.56,-93.56 178.05,-94.08 171.61,-94.45 165.25,-94.68 158.99,-94.75 152.85,-94.66 146.86,-94.43 141.02,-94.04 135.35,-93.5 129.87,-92.81 124.58,-91.98 119.51,-91 114.65,-89.89 110.02,-88.64 105.63,-87.26 101.48,-85.75 97.57,-84.13 93.91,-82.39 90.51,-80.56 87.35,-78.62 84.45,-76.6 81.81,-74.49 79.42,-72.31 77.28,-70.07 75.39,-67.77 73.75,-65.43 72.35,-63.04 71.2,-60.63 70.28,-58.19 69.6,-55.74 69.14,-53.29 68.92,-50.84 68.92,-48.4 69.14,-45.98 69.57,-43.58 70.22,-41.22 71.09,-38.91 72.16,-36.63 73.44,-34.41 74.93,-32.25 76.62,-30.16 78.51,-28.13 80.6,-26.17 82.9,-24.29 85.39,-22.49 88.09,-20.77 90.98,-19.14 94.07,-17.6 97.35,-16.15 100.83,-14.79 104.51,-13.52 108.37,-12.34 112.42,-11.26 116.66,-10.28 121.08,-9.39 125.68,-8.6 130.45,-7.9 135.39,-7.3 140.48,-6.8 145.73,-6.39 151.12,-6.07 156.64,-5.85 162.29,-5.72 168.04,-5.68 173.89,-5.73 179.82,-5.88 185.81,-6.11 191.86,-6.44 197.93,-6.85 204.03,-7.36 210.11,-7.95 216.17,-8.62 222.19,-9.39 228.13,-10.24 233.99,-11.17 239.74,-12.2 245.35,-13.3 250.81,-14.49 256.09,-15.75 261.17,-17.1 266.03,-18.53 270.65,-20.04 275,-21.62 279.06,-23.28 282.83,-25.01 286.27,-26.81 289.37,-28.68 292.12,-30.61 294.51,-32.6 296.51,-34.65 298.12,-36.75 299.33,-38.9 300.13,-41.1 300.52,-43.33 300.5,-45.6 300.05,-47.89 299.19,-50.21 297.91,-52.55 296.22,-54.89 294.12,-57.24 291.63,-59.58 288.75,-61.91 285.5,-64.22 281.89,-66.5 277.93,-68.74 273.64,-70.94 269.04,-73.09 264.15,-75.18 258.99,-77.2 253.59,-79.15 247.95,-81.01 242.12,-82.79 236.1,-84.46"/>
<text text-anchor="middle" x="175.74" y="-43.62" font-family="sans-serif" font-size="16.00">CuentaCliente</text>
</g>
<!-- GestionClientes&#45;&gt;CuentaCliente -->
<g id="edge6" class="edge">
<title>GestionClientes&#45;&gt;CuentaCliente</title>
<path fill="none" stroke="black" stroke-width="2" d="M175.74,-144.38C175.74,-128.38 175.74,-110.4 175.74,-94.37"/>
<text text-anchor="middle" x="251.24" y="-116.23" font-family="sans-serif" font-size="12.00"> &#160;&#160;&#160;&#160;&#160;&#160;&#160;&#160;&#160;&#160;&#160;&#160;&#160;&#160;&#160;&#160;&#160;&#160;&#160;&#160;&#160;&#160;&#160;&#160;&#160;&#160;&#160;&#160;&#160;&#160;&#160;&#160;&#160;&#160;&#160;&#160;&#160;&#160;&#160;</text>
<polygon fill="white" stroke="transparent" points="168.74,-85.37 168.74,-102.37 182.74,-102.37 182.74,-85.37 168.74,-85.37"/>
<text text-anchor="start" x="170.74" y="-90.77" font-family="sans-serif" font-size="12.00">D</text>
<polygon fill="white" stroke="transparent" points="168.74,-135.38 168.74,-152.38 182.74,-152.38 182.74,-135.38 168.74,-135.38"/>
<text text-anchor="start" x="170.74" y="-140.78" font-family="sans-serif" font-size="12.00">U</text>
</g>
<!-- CatalogoAutos -->
<g id="node8" class="node">
<title>CatalogoAutos</title>
<polygon fill="none" stroke="black" stroke-width="2" points="415.22,-437.13 422.47,-436.38 429.76,-435.74 437.05,-435.24 444.31,-434.86 451.52,-434.61 458.65,-434.49 465.68,-434.51 472.57,-434.66 479.3,-434.95 485.85,-435.37 492.2,-435.92 498.33,-436.61 504.21,-437.43 509.83,-438.38 515.18,-439.46 520.24,-440.66 524.99,-441.98 529.44,-443.42 533.57,-444.97 537.38,-446.62 540.85,-448.38 543.99,-450.23 546.8,-452.17 549.27,-454.2 551.41,-456.3 553.23,-458.47 554.72,-460.7 555.89,-462.99 556.74,-465.32 557.3,-467.69 557.55,-470.1 557.52,-472.53 557.21,-474.97 556.63,-477.42 555.8,-479.87 554.71,-482.31 553.39,-484.74 551.84,-487.14 550.07,-489.51 548.1,-491.85 545.93,-494.14 543.56,-496.37 541.02,-498.55 538.31,-500.67 535.43,-502.71 532.39,-504.68 529.19,-506.57 525.86,-508.37 522.38,-510.08 518.76,-511.7 515.01,-513.22 511.13,-514.64 507.13,-515.96 503.01,-517.17 498.76,-518.28 494.4,-519.27 489.92,-520.15 485.33,-520.92 480.63,-521.58 475.83,-522.12 470.92,-522.55 465.92,-522.86 460.82,-523.06 455.63,-523.15 450.36,-523.13 445,-523 439.58,-522.76 434.1,-522.41 428.57,-521.96 422.99,-521.4 417.38,-520.74 411.76,-519.98 406.12,-519.13 400.5,-518.18 394.9,-517.13 389.35,-516 383.85,-514.79 378.43,-513.49 373.1,-512.1 367.89,-510.65 362.81,-509.11 357.89,-507.51 353.14,-505.84 348.59,-504.1 344.26,-502.31 340.17,-500.46 336.34,-498.55 332.78,-496.6 329.53,-494.6 326.6,-492.56 324,-490.48 321.75,-488.37 319.87,-486.23 318.37,-484.07 317.27,-481.89 316.57,-479.7 316.29,-477.49 316.43,-475.29 317,-473.08 318,-470.89 319.44,-468.7 321.3,-466.53 323.59,-464.39 326.31,-462.28 329.44,-460.2 332.98,-458.16 336.91,-456.17 341.22,-454.23 345.9,-452.35 350.92,-450.53 356.27,-448.79 361.93,-447.12 367.87,-445.53 374.07,-444.03 380.51,-442.62 387.15,-441.31 393.97,-440.1 400.94,-439 408.04,-438.01 415.22,-437.13"/>
<text text-anchor="middle" x="443.74" y="-476.08" font-family="sans-serif" font-size="16.00">CatalogoAutos</text>
</g>
<!-- CatalogoAutos&#45;&gt;GestionAlquileres -->
<g id="edge7" class="edge">
<title>CatalogoAutos&#45;&gt;GestionAlquileres</title>
<path fill="none" stroke="black" stroke-width="2" d="M413.89,-436.86C405.17,-425.29 395.38,-412.93 385.74,-402.06 377.69,-392.98 368.61,-383.68 359.77,-375.04"/>
<text text-anchor="middle" x="471.24" y="-405.46" font-family="sans-serif" font-size="12.00"> &#160;&#160;&#160;&#160;&#160;&#160;&#160;&#160;&#160;&#160;&#160;&#160;&#160;&#160;&#160;&#160;&#160;&#160;&#160;&#160;&#160;&#160;&#160;&#160;&#160;&#160;&#160;&#160;&#160;&#160;&#160;&#160;&#160;&#160;&#160;&#160;&#160;&#160;&#160;</text>
<polygon fill="white" stroke="transparent" points="352.77,-366.04 352.77,-383.04 366.77,-383.04 366.77,-366.04 352.77,-366.04"/>
<text text-anchor="start" x="354.77" y="-371.44" font-family="sans-serif" font-size="12.00">D</text>
<polygon fill="white" stroke="transparent" points="389.89,-426.86 389.89,-445.86 405.89,-445.86 405.89,-426.86 389.89,-426.86"/>
<polyline fill="none" stroke="black" points="405.89,-426.86 405.89,-445.86 "/>
<text text-anchor="start" x="392.89" y="-433.26" font-family="sans-serif" font-size="12.00">U</text>
<polygon fill="white" stroke="transparent" points="405.89,-426.86 405.89,-445.86 438.89,-445.86 438.89,-426.86 405.89,-426.86"/>
<polygon fill="none" stroke="black" points="405.89,-426.86 405.89,-445.86 438.89,-445.86 438.89,-426.86 405.89,-426.86"/>
<text text-anchor="start" x="408.89" y="-433.26" font-family="sans-serif" font-size="12.00">OHS</text>
</g>
</g>
</svg>
