<svg width="2000px" height="2621px"
 viewBox="0.00 0.00 628.34 823.21" xmlns="http://www.w3.org/2000/svg" xmlns:xlink="http://www.w3.org/1999/xlink">
<g id="graph0" class="graph" transform="scale(1.0 1.0) rotate(0) translate(4 819.21)">
<title>ContextMapGraph</title>
<polygon fill="white" stroke="transparent" points="-4,4 -4,-819.21 624.34,-819.21 624.34,4 -4,4"/>
<!-- AutorizacionAutenticacion -->
<g id="node1" class="node">
<title>AutorizacionAutenticacion</title>
<polygon fill="none" stroke="black" stroke-width="2" points="331.87,-794.93 324.29,-797.12 316.37,-799.22 308.16,-801.22 299.67,-803.11 290.95,-804.89 282.02,-806.54 272.91,-808.06 263.65,-809.43 254.29,-810.67 244.83,-811.76 235.33,-812.69 225.8,-813.47 216.27,-814.08 206.77,-814.54 197.33,-814.83 187.97,-814.96 178.71,-814.92 169.59,-814.73 160.61,-814.37 151.79,-813.86 143.17,-813.19 134.75,-812.37 126.55,-811.41 118.58,-810.3 110.87,-809.07 103.41,-807.7 96.23,-806.21 89.33,-804.61 82.72,-802.9 76.42,-801.1 70.42,-799.2 64.74,-797.23 59.38,-795.18 54.36,-793.06 49.66,-790.89 45.31,-788.67 41.3,-786.41 37.64,-784.13 34.33,-781.82 31.38,-779.49 28.79,-777.16 26.57,-774.83 24.72,-772.51 23.25,-770.2 22.15,-767.91 21.43,-765.65 21.11,-763.43 21.17,-761.23 21.62,-759.09 22.48,-756.98 23.73,-754.93 25.39,-752.93 27.46,-750.99 29.93,-749.11 32.81,-747.29 36.1,-745.53 39.81,-743.84 43.92,-742.22 48.44,-740.66 53.36,-739.17 58.69,-737.75 64.41,-736.41 70.52,-735.13 77.01,-733.93 83.87,-732.79 91.09,-731.74 98.65,-730.75 106.55,-729.84 114.77,-729 123.28,-728.24 132.08,-727.55 141.13,-726.94 150.42,-726.4 159.91,-725.95 169.6,-725.57 179.43,-725.28 189.4,-725.07 199.47,-724.94 209.6,-724.9 219.77,-724.95 229.93,-725.08 240.07,-725.31 250.13,-725.63 260.09,-726.05 269.92,-726.56 279.56,-727.17 289,-727.88 298.19,-728.7 307.1,-729.61 315.7,-730.63 323.95,-731.74 331.83,-732.97 339.29,-734.29 346.31,-735.72 352.87,-737.25 358.94,-738.88 364.49,-740.6 369.51,-742.42 373.97,-744.34 377.86,-746.34 381.16,-748.42 383.86,-750.59 385.95,-752.83 387.42,-755.14 388.28,-757.51 388.51,-759.93 388.13,-762.4 387.13,-764.92 385.52,-767.46 383.31,-770.03 380.51,-772.62 377.14,-775.2 373.21,-777.79 368.74,-780.36 363.76,-782.9 358.27,-785.42 352.31,-787.88 345.91,-790.3 339.08,-792.65 331.87,-794.93"/>
<text text-anchor="middle" x="194.34" y="-762.66" font-family="sans-serif" font-size="16.00">AutorizacionAutenticacion</text>
</g>
<!-- Seguridad -->
<g id="node2" class="node">
<title>Seguridad</title>
<polygon fill="none" stroke="black" stroke-width="2" points="196.48,-668.63 190.57,-668.74 184.69,-668.72 178.87,-668.59 173.12,-668.33 167.48,-667.96 161.96,-667.46 156.58,-666.83 151.36,-666.09 146.33,-665.24 141.5,-664.26 136.89,-663.18 132.51,-661.98 128.38,-660.68 124.51,-659.28 120.9,-657.77 117.58,-656.17 114.54,-654.48 111.79,-652.7 109.34,-650.84 107.18,-648.91 105.33,-646.9 103.78,-644.83 102.52,-642.71 101.56,-640.53 100.88,-638.31 100.49,-636.04 100.38,-633.75 100.54,-631.43 100.96,-629.09 101.63,-626.73 102.55,-624.38 103.69,-622.02 105.05,-619.68 106.63,-617.35 108.4,-615.04 110.36,-612.76 112.49,-610.52 114.79,-608.32 117.24,-606.17 119.83,-604.07 122.55,-602.04 125.4,-600.07 128.35,-598.17 131.41,-596.35 134.56,-594.62 137.8,-592.97 141.12,-591.41 144.51,-589.94 147.97,-588.58 151.49,-587.32 155.07,-586.16 158.7,-585.12 162.37,-584.18 166.1,-583.36 169.86,-582.66 173.66,-582.07 177.5,-581.6 181.38,-581.24 185.28,-581.01 189.22,-580.9 193.18,-580.9 197.16,-581.03 201.17,-581.27 205.19,-581.63 209.22,-582.11 213.26,-582.69 217.31,-583.39 221.35,-584.2 225.39,-585.12 229.41,-586.14 233.4,-587.26 237.37,-588.48 241.29,-589.8 245.17,-591.2 248.98,-592.7 252.72,-594.27 256.37,-595.93 259.93,-597.66 263.38,-599.46 266.7,-601.32 269.89,-603.25 272.92,-605.23 275.79,-607.26 278.48,-609.33 280.97,-611.45 283.26,-613.6 285.32,-615.78 287.14,-617.98 288.71,-620.2 290.02,-622.44 291.06,-624.68 291.8,-626.92 292.26,-629.15 292.41,-631.38 292.25,-633.59 291.77,-635.78 290.97,-637.95 289.84,-640.08 288.39,-642.17 286.61,-644.21 284.5,-646.21 282.07,-648.16 279.33,-650.04 276.27,-651.86 272.91,-653.61 269.25,-655.28 265.32,-656.88 261.12,-658.39 256.66,-659.81 251.97,-661.14 247.06,-662.38 241.95,-663.51 236.67,-664.54 231.22,-665.47 225.63,-666.28 219.94,-666.98 214.15,-667.57 208.29,-668.04 202.4,-668.39 196.48,-668.63"/>
<text text-anchor="middle" x="194.34" y="-620.87" font-family="sans-serif" font-size="16.00">Seguridad</text>
</g>
<!-- AutorizacionAutenticacion&#45;&gt;Seguridad -->
<g id="edge1" class="edge">
<title>AutorizacionAutenticacion&#45;&gt;Seguridad</title>
<path fill="none" stroke="black" stroke-width="2" d="M194.34,-724.65C194.34,-707.08 194.34,-686.53 194.34,-668.72"/>
<text text-anchor="middle" x="269.84" y="-690.1" font-family="sans-serif" font-size="12.00"> &#160;&#160;&#160;&#160;&#160;&#160;&#160;&#160;&#160;&#160;&#160;&#160;&#160;&#160;&#160;&#160;&#160;&#160;&#160;&#160;&#160;&#160;&#160;&#160;&#160;&#160;&#160;&#160;&#160;&#160;&#160;&#160;&#160;&#160;&#160;&#160;&#160;&#160;&#160;</text>
<polygon fill="white" stroke="transparent" points="187.34,-659.72 187.34,-676.72 201.34,-676.72 201.34,-659.72 187.34,-659.72"/>
<text text-anchor="start" x="189.34" y="-665.12" font-family="sans-serif" font-size="12.00">D</text>
<polygon fill="white" stroke="transparent" points="187.34,-715.65 187.34,-732.65 201.34,-732.65 201.34,-715.65 187.34,-715.65"/>
<text text-anchor="start" x="189.34" y="-721.05" font-family="sans-serif" font-size="12.00">U</text>
</g>
<!-- GestionPagos -->
<g id="node3" class="node">
<title>GestionPagos</title>
<polygon fill="none" stroke="black" stroke-width="2" points="146.19,-445.41 152.49,-444.1 158.89,-442.9 165.35,-441.82 171.86,-440.87 178.39,-440.05 184.9,-439.37 191.39,-438.82 197.83,-438.42 204.18,-438.16 210.44,-438.05 216.58,-438.09 222.59,-438.28 228.43,-438.61 234.11,-439.09 239.59,-439.72 244.87,-440.49 249.93,-441.4 254.77,-442.45 259.37,-443.64 263.73,-444.95 267.83,-446.39 271.67,-447.95 275.26,-449.63 278.57,-451.41 281.62,-453.3 284.41,-455.27 286.92,-457.34 289.17,-459.48 291.15,-461.7 292.87,-463.97 294.34,-466.31 295.55,-468.68 296.51,-471.1 297.23,-473.54 297.71,-476 297.96,-478.48 297.98,-480.96 297.78,-483.43 297.36,-485.89 296.73,-488.33 295.9,-490.74 294.86,-493.12 293.63,-495.45 292.21,-497.74 290.59,-499.97 288.8,-502.14 286.82,-504.24 284.66,-506.27 282.32,-508.22 279.82,-510.09 277.14,-511.88 274.28,-513.58 271.26,-515.18 268.08,-516.7 264.72,-518.12 261.21,-519.44 257.53,-520.65 253.69,-521.77 249.69,-522.79 245.53,-523.7 241.23,-524.51 236.77,-525.22 232.17,-525.83 227.43,-526.33 222.55,-526.73 217.55,-527.02 212.42,-527.22 207.19,-527.32 201.85,-527.32 196.42,-527.21 190.91,-527.02 185.33,-526.72 179.7,-526.34 174.03,-525.86 168.33,-525.28 162.63,-524.62 156.93,-523.87 151.26,-523.03 145.64,-522.1 140.09,-521.09 134.62,-520 129.26,-518.82 124.03,-517.57 118.95,-516.23 114.03,-514.82 109.31,-513.34 104.8,-511.78 100.53,-510.15 96.5,-508.46 92.75,-506.69 89.29,-504.87 86.14,-502.98 83.32,-501.04 80.83,-499.05 78.7,-497.01 76.94,-494.92 75.55,-492.78 74.55,-490.61 73.95,-488.41 73.75,-486.18 73.96,-483.93 74.57,-481.66 75.59,-479.38 77.01,-477.1 78.84,-474.82 81.06,-472.54 83.67,-470.28 86.66,-468.04 90.01,-465.83 93.72,-463.65 97.76,-461.52 102.13,-459.43 106.8,-457.4 111.75,-455.44 116.97,-453.55 122.43,-451.74 128.1,-450.01 133.97,-448.38 140.01,-446.84 146.19,-445.41"/>
<text text-anchor="middle" x="194.34" y="-481.15" font-family="sans-serif" font-size="16.00">GestionPagos</text>
</g>
<!-- Seguridad&#45;&gt;GestionPagos -->
<g id="edge2" class="edge">
<title>Seguridad&#45;&gt;GestionPagos</title>
<path fill="none" stroke="black" stroke-width="2" d="M194.34,-580.85C194.34,-563.79 194.34,-544.24 194.34,-527.33"/>
<text text-anchor="middle" x="269.84" y="-553.04" font-family="sans-serif" font-size="12.00"> &#160;&#160;&#160;&#160;&#160;&#160;&#160;&#160;&#160;&#160;&#160;&#160;&#160;&#160;&#160;&#160;&#160;&#160;&#160;&#160;&#160;&#160;&#160;&#160;&#160;&#160;&#160;&#160;&#160;&#160;&#160;&#160;&#160;&#160;&#160;&#160;&#160;&#160;&#160;</text>
<polygon fill="white" stroke="transparent" points="175.34,-517.33 175.34,-536.33 191.34,-536.33 191.34,-517.33 175.34,-517.33"/>
<polyline fill="none" stroke="black" points="191.34,-517.33 191.34,-536.33 "/>
<text text-anchor="start" x="178.34" y="-523.73" font-family="sans-serif" font-size="12.00">D</text>
<polygon fill="white" stroke="transparent" points="191.34,-517.33 191.34,-536.33 213.34,-536.33 213.34,-517.33 191.34,-517.33"/>
<polygon fill="none" stroke="black" points="191.34,-517.33 191.34,-536.33 213.34,-536.33 213.34,-517.33 191.34,-517.33"/>
<text text-anchor="start" x="194.34" y="-523.73" font-family="sans-serif" font-size="12.00">CF</text>
<polygon fill="white" stroke="transparent" points="176.34,-570.85 176.34,-589.85 192.34,-589.85 192.34,-570.85 176.34,-570.85"/>
<polyline fill="none" stroke="black" points="192.34,-570.85 192.34,-589.85 "/>
<text text-anchor="start" x="179.34" y="-577.25" font-family="sans-serif" font-size="12.00">U</text>
<polygon fill="white" stroke="transparent" points="192.34,-570.85 192.34,-589.85 213.34,-589.85 213.34,-570.85 192.34,-570.85"/>
<polygon fill="none" stroke="black" points="192.34,-570.85 192.34,-589.85 213.34,-589.85 213.34,-570.85 192.34,-570.85"/>
<text text-anchor="start" x="195.34" y="-577.25" font-family="sans-serif" font-size="12.00">PL</text>
</g>
<!-- GestionAlquileres -->
<g id="node4" class="node">
<title>GestionAlquileres</title>
<polygon fill="none" stroke="black" stroke-width="2" points="427.49,-368.97 421.97,-371.16 416.2,-373.27 410.22,-375.27 404.04,-377.16 397.69,-378.93 391.19,-380.58 384.55,-382.1 377.81,-383.48 370.99,-384.71 364.11,-385.8 357.19,-386.73 350.25,-387.51 343.31,-388.13 336.39,-388.58 329.52,-388.87 322.7,-389 315.96,-388.97 309.31,-388.77 302.77,-388.42 296.36,-387.9 290.08,-387.23 283.95,-386.42 277.97,-385.45 272.17,-384.35 266.56,-383.11 261.13,-381.74 255.9,-380.26 250.87,-378.66 246.06,-376.95 241.47,-375.14 237.1,-373.25 232.97,-371.27 229.07,-369.22 225.4,-367.11 221.99,-364.93 218.81,-362.72 215.89,-360.46 213.23,-358.17 210.82,-355.86 208.67,-353.54 206.79,-351.21 205.17,-348.88 203.82,-346.55 202.75,-344.25 201.95,-341.96 201.43,-339.7 201.19,-337.47 201.24,-335.28 201.57,-333.13 202.19,-331.03 203.1,-328.98 204.31,-326.98 205.82,-325.04 207.62,-323.15 209.72,-321.33 212.11,-319.58 214.81,-317.89 217.8,-316.26 221.1,-314.7 224.68,-313.22 228.56,-311.8 232.72,-310.45 237.17,-309.18 241.9,-307.97 246.89,-306.84 252.15,-305.78 257.66,-304.79 263.41,-303.88 269.4,-303.04 275.6,-302.28 282,-301.59 288.59,-300.98 295.35,-300.45 302.27,-299.99 309.32,-299.62 316.49,-299.32 323.74,-299.11 331.07,-298.99 338.45,-298.95 345.86,-298.99 353.26,-299.13 360.64,-299.36 367.97,-299.68 375.22,-300.1 382.37,-300.61 389.4,-301.22 396.27,-301.93 402.96,-302.74 409.45,-303.65 415.71,-304.67 421.72,-305.79 427.46,-307.01 432.89,-308.34 438.01,-309.76 442.78,-311.29 447.2,-312.92 451.24,-314.65 454.9,-316.47 458.14,-318.38 460.97,-320.38 463.38,-322.47 465.34,-324.63 466.87,-326.87 467.94,-329.18 468.56,-331.55 468.74,-333.98 468.46,-336.45 467.73,-338.96 466.56,-341.51 464.95,-344.08 462.91,-346.66 460.45,-349.25 457.59,-351.83 454.34,-354.4 450.71,-356.95 446.71,-359.46 442.37,-361.93 437.71,-364.34 432.74,-366.69 427.49,-368.97"/>
<text text-anchor="middle" x="327.34" y="-336.7" font-family="sans-serif" font-size="16.00">GestionAlquileres</text>
</g>
<!-- GestionPagos&#45;&gt;GestionAlquileres -->
<g id="edge3" class="edge">
<title>GestionPagos&#45;&gt;GestionAlquileres</title>
<path fill="none" stroke="black" stroke-width="2" d="M217.9,-438.14C224.43,-427.45 232.04,-416.49 240.34,-407.25 247.93,-398.8 256.74,-390.7 265.79,-383.25"/>
<text text-anchor="middle" x="315.84" y="-410.65" font-family="sans-serif" font-size="12.00"> &#160;&#160;&#160;&#160;&#160;&#160;&#160;&#160;&#160;&#160;&#160;&#160;&#160;&#160;&#160;&#160;&#160;&#160;&#160;&#160;&#160;&#160;&#160;&#160;&#160;&#160;&#160;&#160;&#160;&#160;&#160;&#160;&#160;&#160;&#160;&#160;&#160;&#160;&#160;</text>
<polygon fill="white" stroke="transparent" points="258.79,-374.25 258.79,-391.25 272.79,-391.25 272.79,-374.25 258.79,-374.25"/>
<text text-anchor="start" x="260.79" y="-379.65" font-family="sans-serif" font-size="12.00">D</text>
<polygon fill="white" stroke="transparent" points="210.9,-429.14 210.9,-446.14 224.9,-446.14 224.9,-429.14 210.9,-429.14"/>
<text text-anchor="start" x="212.9" y="-434.54" font-family="sans-serif" font-size="12.00">U</text>
</g>
<!-- GestionClientes -->
<g id="node5" class="node">
<title>GestionClientes</title>
<polygon fill="none" stroke="black" stroke-width="2" points="124.16,-156.4 130.93,-154.91 137.82,-153.53 144.81,-152.27 151.87,-151.14 158.98,-150.14 166.11,-149.27 173.23,-148.55 180.32,-147.97 187.35,-147.53 194.3,-147.24 201.14,-147.1 207.86,-147.12 214.43,-147.29 220.84,-147.6 227.06,-148.07 233.09,-148.69 238.9,-149.46 244.49,-150.37 249.84,-151.42 254.94,-152.61 259.78,-153.93 264.36,-155.37 268.67,-156.94 272.71,-158.63 276.46,-160.42 279.94,-162.31 283.13,-164.3 286.05,-166.37 288.68,-168.53 291.03,-170.75 293.11,-173.03 294.92,-175.37 296.45,-177.75 297.72,-180.16 298.72,-182.6 299.47,-185.06 299.97,-187.54 300.22,-190.01 300.23,-192.47 299.99,-194.92 299.53,-197.35 298.83,-199.75 297.9,-202.11 296.75,-204.43 295.38,-206.7 293.8,-208.91 291.99,-211.06 289.98,-213.15 287.75,-215.16 285.32,-217.1 282.68,-218.96 279.83,-220.73 276.77,-222.42 273.52,-224.02 270.05,-225.53 266.39,-226.94 262.53,-228.26 258.47,-229.49 254.21,-230.61 249.76,-231.64 245.12,-232.57 240.29,-233.41 235.28,-234.14 230.1,-234.77 224.75,-235.31 219.23,-235.75 213.57,-236.09 207.75,-236.33 201.81,-236.48 195.75,-236.54 189.57,-236.5 183.31,-236.36 176.96,-236.14 170.55,-235.82 164.1,-235.41 157.62,-234.91 151.14,-234.32 144.67,-233.64 138.23,-232.88 131.86,-232.03 125.56,-231.09 119.37,-230.07 113.3,-228.97 107.39,-227.78 101.65,-226.52 96.11,-225.17 90.79,-223.75 85.71,-222.24 80.91,-220.67 76.4,-219.02 72.2,-217.3 68.33,-215.51 64.81,-213.65 61.66,-211.73 58.9,-209.76 56.53,-207.72 54.58,-205.64 53.06,-203.5 51.97,-201.32 51.32,-199.11 51.11,-196.86 51.36,-194.58 52.06,-192.27 53.21,-189.96 54.8,-187.63 56.84,-185.3 59.31,-182.97 62.21,-180.65 65.52,-178.35 69.23,-176.07 73.33,-173.83 77.79,-171.63 82.6,-169.47 87.74,-167.38 93.19,-165.34 98.92,-163.38 104.9,-161.5 111.12,-159.7 117.55,-158 124.16,-156.4"/>
<text text-anchor="middle" x="185.34" y="-190.65" font-family="sans-serif" font-size="16.00">GestionClientes</text>
</g>
<!-- GestionAlquileres&#45;&gt;GestionClientes -->
<g id="edge4" class="edge">
<title>GestionAlquileres&#45;&gt;GestionClientes</title>
<path fill="none" stroke="black" stroke-width="2" d="M289.28,-300.9C269.32,-280.65 244.89,-255.87 224.74,-235.42"/>
<text text-anchor="middle" x="295.84" y="-264.15" font-family="sans-serif" font-size="12.00">Partnership</text>
</g>
<!-- GestionVehiculos -->
<g id="node7" class="node">
<title>GestionVehiculos</title>
<polygon fill="none" stroke="black" stroke-width="2" points="597.66,-188.09 599.01,-190.92 600.01,-193.74 600.63,-196.55 600.88,-199.34 600.76,-202.09 600.26,-204.8 599.38,-207.46 598.13,-210.05 596.49,-212.57 594.49,-215 592.12,-217.35 589.38,-219.59 586.29,-221.73 582.85,-223.76 579.07,-225.67 574.96,-227.46 570.54,-229.13 565.82,-230.66 560.8,-232.06 555.52,-233.33 549.97,-234.46 544.19,-235.46 538.18,-236.32 531.97,-237.05 525.57,-237.64 519.02,-238.1 512.31,-238.43 505.49,-238.64 498.56,-238.72 491.56,-238.68 484.5,-238.53 477.41,-238.27 470.3,-237.9 463.2,-237.42 456.14,-236.85 449.13,-236.19 442.19,-235.44 435.35,-234.6 428.62,-233.69 422.03,-232.7 415.6,-231.64 409.34,-230.51 403.27,-229.33 397.41,-228.08 391.77,-226.78 386.37,-225.42 381.23,-224.02 376.35,-222.57 371.76,-221.08 367.45,-219.54 363.44,-217.96 359.75,-216.35 356.37,-214.7 353.31,-213.01 350.59,-211.29 348.2,-209.54 346.15,-207.75 344.44,-205.94 343.08,-204.09 342.06,-202.22 341.38,-200.32 341.05,-198.39 341.06,-196.44 341.41,-194.47 342.1,-192.47 343.11,-190.46 344.46,-188.44 346.12,-186.4 348.1,-184.35 350.39,-182.3 352.98,-180.24 355.86,-178.19 359.02,-176.15 362.46,-174.12 366.17,-172.11 370.13,-170.13 374.34,-168.17 378.78,-166.26 383.45,-164.38 388.32,-162.56 393.4,-160.8 398.67,-159.1 404.12,-157.48 409.72,-155.94 415.48,-154.49 421.38,-153.13 427.4,-151.88 433.53,-150.74 439.76,-149.71 446.07,-148.82 452.45,-148.05 458.89,-147.42 465.36,-146.93 471.85,-146.58 478.36,-146.39 484.85,-146.36 491.32,-146.48 497.75,-146.76 504.13,-147.2 510.44,-147.81 516.66,-148.58 522.77,-149.51 528.77,-150.6 534.63,-151.84 540.34,-153.25 545.88,-154.79 551.24,-156.49 556.4,-158.32 561.35,-160.29 566.06,-162.38 570.53,-164.58 574.75,-166.9 578.69,-169.31 582.35,-171.81 585.71,-174.39 588.76,-177.04 591.49,-179.74 593.89,-182.5 595.95,-185.28 597.66,-188.09"/>
<text text-anchor="middle" x="469.34" y="-190.65" font-family="sans-serif" font-size="16.00">GestionVehiculos</text>
</g>
<!-- GestionAlquileres&#45;&gt;GestionVehiculos -->
<g id="edge5" class="edge">
<title>GestionAlquileres&#45;&gt;GestionVehiculos</title>
<path fill="none" stroke="black" stroke-width="2" d="M366.89,-299.37C386.92,-279.06 411.12,-254.51 430.97,-234.37"/>
<text text-anchor="middle" x="436.84" y="-264.15" font-family="sans-serif" font-size="12.00">Partnership</text>
</g>
<!-- CuentaCliente -->
<g id="node6" class="node">
<title>CuentaCliente</title>
<polygon fill="none" stroke="black" stroke-width="2" points="82.29,-30.93 85.14,-28.28 88.25,-25.69 91.62,-23.18 95.24,-20.76 99.08,-18.43 103.14,-16.21 107.41,-14.1 111.86,-12.12 116.49,-10.27 121.28,-8.55 126.22,-6.98 131.3,-5.55 136.49,-4.28 141.78,-3.17 147.16,-2.22 152.62,-1.43 158.14,-0.81 163.71,-0.35 169.31,-0.05 174.92,0.08 180.54,0.05 186.16,-0.14 191.75,-0.49 197.3,-0.99 202.82,-1.63 208.27,-2.42 213.65,-3.34 218.95,-4.39 224.15,-5.56 229.26,-6.86 234.24,-8.25 239.1,-9.75 243.82,-11.35 248.4,-13.03 252.82,-14.78 257.07,-16.61 261.15,-18.5 265.04,-20.44 268.74,-22.43 272.24,-24.46 275.53,-26.52 278.6,-28.61 281.45,-30.71 284.06,-32.83 286.43,-34.95 288.56,-37.08 290.43,-39.2 292.04,-41.31 293.39,-43.41 294.46,-45.5 295.26,-47.56 295.78,-49.6 296.02,-51.62 295.97,-53.61 295.62,-55.56 294.99,-57.49 294.07,-59.38 292.85,-61.24 291.34,-63.06 289.53,-64.84 287.44,-66.58 285.06,-68.28 282.39,-69.95 279.45,-71.57 276.23,-73.14 272.74,-74.67 268.99,-76.16 264.99,-77.6 260.75,-78.99 256.27,-80.33 251.56,-81.62 246.65,-82.85 241.54,-84.02 236.25,-85.13 230.78,-86.18 225.16,-87.16 219.41,-88.07 213.53,-88.91 207.55,-89.67 201.48,-90.34 195.34,-90.93 189.15,-91.43 182.94,-91.84 176.71,-92.14 170.5,-92.35 164.31,-92.44 158.18,-92.43 152.11,-92.3 146.14,-92.05 140.27,-91.69 134.53,-91.19 128.94,-90.58 123.51,-89.83 118.27,-88.96 113.22,-87.95 108.4,-86.81 103.8,-85.54 99.46,-84.15 95.37,-82.62 91.56,-80.97 88.03,-79.2 84.8,-77.3 81.87,-75.3 79.26,-73.18 76.97,-70.96 75,-68.64 73.37,-66.23 72.07,-63.74 71.11,-61.18 70.49,-58.55 70.21,-55.86 70.26,-53.13 70.65,-50.36 71.37,-47.57 72.41,-44.77 73.78,-41.96 75.46,-39.16 77.44,-36.38 79.72,-33.63 82.29,-30.93"/>
<text text-anchor="middle" x="185.34" y="-44.78" font-family="sans-serif" font-size="16.00">CuentaCliente</text>
</g>
<!-- GestionClientes&#45;&gt;CuentaCliente -->
<g id="edge6" class="edge">
<title>GestionClientes&#45;&gt;CuentaCliente</title>
<path fill="none" stroke="black" stroke-width="2" d="M185.34,-147.53C185.34,-129.77 185.34,-109.56 185.34,-92.13"/>
<text text-anchor="middle" x="260.84" y="-118.55" font-family="sans-serif" font-size="12.00"> &#160;&#160;&#160;&#160;&#160;&#160;&#160;&#160;&#160;&#160;&#160;&#160;&#160;&#160;&#160;&#160;&#160;&#160;&#160;&#160;&#160;&#160;&#160;&#160;&#160;&#160;&#160;&#160;&#160;&#160;&#160;&#160;&#160;&#160;&#160;&#160;&#160;&#160;&#160;</text>
<polygon fill="white" stroke="transparent" points="178.34,-83.13 178.34,-100.13 192.34,-100.13 192.34,-83.13 178.34,-83.13"/>
<text text-anchor="start" x="180.34" y="-88.53" font-family="sans-serif" font-size="12.00">D</text>
<polygon fill="white" stroke="transparent" points="178.34,-138.53 178.34,-155.53 192.34,-155.53 192.34,-138.53 178.34,-138.53"/>
<text text-anchor="start" x="180.34" y="-143.93" font-family="sans-serif" font-size="12.00">U</text>
</g>
<!-- RastreoAuto -->
<g id="node8" class="node">
<title>RastreoAuto</title>
<polygon fill="none" stroke="black" stroke-width="2" points="535.69,-81.4 530.83,-83.32 525.81,-85.14 520.67,-86.85 515.41,-88.43 510.05,-89.9 504.62,-91.23 499.14,-92.43 493.62,-93.49 488.09,-94.4 482.56,-95.16 477.04,-95.76 471.57,-96.21 466.14,-96.5 460.79,-96.63 455.51,-96.6 450.34,-96.42 445.27,-96.07 440.32,-95.57 435.51,-94.92 430.84,-94.11 426.32,-93.16 421.97,-92.07 417.78,-90.84 413.76,-89.48 409.92,-87.99 406.27,-86.39 402.8,-84.67 399.53,-82.85 396.45,-80.94 393.57,-78.94 390.89,-76.86 388.4,-74.71 386.12,-72.5 384.03,-70.24 382.15,-67.93 380.47,-65.58 379,-63.21 377.72,-60.82 376.64,-58.42 375.77,-56.02 375.09,-53.63 374.62,-51.24 374.35,-48.88 374.28,-46.54 374.4,-44.24 374.74,-41.98 375.27,-39.76 376,-37.59 376.94,-35.48 378.08,-33.42 379.43,-31.43 380.97,-29.51 382.73,-27.65 384.69,-25.87 386.85,-24.16 389.22,-22.53 391.79,-20.98 394.57,-19.51 397.54,-18.12 400.72,-16.81 404.09,-15.59 407.66,-14.44 411.42,-13.38 415.37,-12.41 419.49,-11.52 423.79,-10.71 428.26,-9.99 432.89,-9.35 437.66,-8.79 442.58,-8.32 447.62,-7.94 452.78,-7.64 458.05,-7.42 463.4,-7.29 468.83,-7.24 474.33,-7.28 479.86,-7.41 485.43,-7.62 491,-7.92 496.56,-8.31 502.09,-8.78 507.58,-9.35 513,-10.01 518.33,-10.75 523.56,-11.59 528.65,-12.52 533.6,-13.54 538.39,-14.65 542.98,-15.86 547.38,-17.15 551.55,-18.54 555.47,-20.01 559.14,-21.58 562.54,-23.23 565.65,-24.96 568.46,-26.78 570.95,-28.68 573.12,-30.65 574.96,-32.69 576.45,-34.81 577.59,-36.98 578.38,-39.22 578.82,-41.51 578.89,-43.85 578.6,-46.22 577.95,-48.63 576.95,-51.07 575.6,-53.53 573.9,-56 571.87,-58.47 569.51,-60.93 566.83,-63.38 563.85,-65.81 560.58,-68.21 557.03,-70.56 553.21,-72.87 549.16,-75.11 544.87,-77.29 540.37,-79.39 535.69,-81.4"/>
<text text-anchor="middle" x="469.34" y="-44.78" font-family="sans-serif" font-size="16.00">RastreoAuto</text>
</g>
<!-- GestionVehiculos&#45;&gt;RastreoAuto -->
<g id="edge7" class="edge">
<title>GestionVehiculos&#45;&gt;RastreoAuto</title>
<path fill="none" stroke="black" stroke-width="2" d="M469.34,-146.34C469.34,-130.44 469.34,-112.7 469.34,-96.79"/>
<text text-anchor="middle" x="544.84" y="-118.55" font-family="sans-serif" font-size="12.00"> &#160;&#160;&#160;&#160;&#160;&#160;&#160;&#160;&#160;&#160;&#160;&#160;&#160;&#160;&#160;&#160;&#160;&#160;&#160;&#160;&#160;&#160;&#160;&#160;&#160;&#160;&#160;&#160;&#160;&#160;&#160;&#160;&#160;&#160;&#160;&#160;&#160;&#160;&#160;</text>
<polygon fill="white" stroke="transparent" points="462.34,-87.79 462.34,-104.79 476.34,-104.79 476.34,-87.79 462.34,-87.79"/>
<text text-anchor="start" x="464.34" y="-93.19" font-family="sans-serif" font-size="12.00">D</text>
<polygon fill="white" stroke="transparent" points="462.34,-137.34 462.34,-154.34 476.34,-154.34 476.34,-137.34 462.34,-137.34"/>
<text text-anchor="start" x="464.34" y="-142.74" font-family="sans-serif" font-size="12.00">U</text>
</g>
<!-- CatalogoAutos -->
<g id="node9" class="node">
<title>CatalogoAutos</title>
<polygon fill="none" stroke="black" stroke-width="2" points="479.99,-527.93 472.63,-528.49 465.25,-528.92 457.9,-529.23 450.59,-529.41 443.36,-529.46 436.23,-529.39 429.23,-529.19 422.39,-528.86 415.73,-528.39 409.28,-527.8 403.05,-527.09 397.08,-526.24 391.36,-525.28 385.93,-524.19 380.8,-522.98 375.97,-521.66 371.47,-520.23 367.3,-518.69 363.47,-517.06 359.98,-515.32 356.83,-513.49 354.04,-511.58 351.59,-509.59 349.5,-507.52 347.74,-505.39 346.33,-503.19 345.25,-500.95 344.5,-498.66 344.07,-496.33 343.95,-493.97 344.13,-491.59 344.6,-489.19 345.36,-486.78 346.38,-484.38 347.66,-481.98 349.18,-479.6 350.94,-477.23 352.92,-474.9 355.11,-472.6 357.5,-470.35 360.08,-468.15 362.84,-466 365.77,-463.91 368.87,-461.9 372.11,-459.95 375.49,-458.09 379.02,-456.31 382.67,-454.62 386.45,-453.02 390.35,-451.51 394.36,-450.11 398.48,-448.81 402.71,-447.61 407.04,-446.53 411.47,-445.55 416,-444.68 420.62,-443.93 425.34,-443.29 430.14,-442.77 435.03,-442.36 439.99,-442.07 445.04,-441.89 450.16,-441.82 455.35,-441.87 460.6,-442.03 465.91,-442.31 471.27,-442.69 476.67,-443.18 482.1,-443.77 487.56,-444.47 493.03,-445.27 498.49,-446.17 503.95,-447.16 509.38,-448.25 514.77,-449.43 520.11,-450.69 525.36,-452.04 530.53,-453.47 535.59,-454.98 540.52,-456.56 545.3,-458.2 549.92,-459.92 554.34,-461.7 558.56,-463.53 562.55,-465.42 566.29,-467.36 569.76,-469.34 572.95,-471.37 575.83,-473.43 578.38,-475.52 580.6,-477.64 582.45,-479.79 583.94,-481.95 585.04,-484.12 585.74,-486.31 586.04,-488.49 585.92,-490.68 585.37,-492.85 584.41,-495.02 583.01,-497.16 581.19,-499.28 578.94,-501.37 576.26,-503.43 573.17,-505.45 569.67,-507.42 565.78,-509.34 561.5,-511.2 556.85,-513 551.84,-514.74 546.51,-516.4 540.86,-517.98 534.91,-519.48 528.7,-520.89 522.25,-522.21 515.58,-523.43 508.73,-524.55 501.71,-525.56 494.56,-526.47 487.31,-527.26 479.99,-527.93"/>
<text text-anchor="middle" x="459.34" y="-481.15" font-family="sans-serif" font-size="16.00">CatalogoAutos</text>
</g>
<!-- CatalogoAutos&#45;&gt;GestionAlquileres -->
<g id="edge8" class="edge">
<title>CatalogoAutos&#45;&gt;GestionAlquileres</title>
<path fill="none" stroke="black" stroke-width="2" d="M426.58,-443.05C416.78,-431.27 405.85,-418.56 395.34,-407.25 388.41,-399.79 380.84,-392.09 373.36,-384.7"/>
<text text-anchor="middle" x="480.84" y="-410.65" font-family="sans-serif" font-size="12.00"> &#160;&#160;&#160;&#160;&#160;&#160;&#160;&#160;&#160;&#160;&#160;&#160;&#160;&#160;&#160;&#160;&#160;&#160;&#160;&#160;&#160;&#160;&#160;&#160;&#160;&#160;&#160;&#160;&#160;&#160;&#160;&#160;&#160;&#160;&#160;&#160;&#160;&#160;&#160;</text>
<polygon fill="white" stroke="transparent" points="366.36,-375.7 366.36,-392.7 380.36,-392.7 380.36,-375.7 366.36,-375.7"/>
<text text-anchor="start" x="368.36" y="-381.1" font-family="sans-serif" font-size="12.00">D</text>
<polygon fill="white" stroke="transparent" points="402.58,-433.05 402.58,-452.05 418.58,-452.05 418.58,-433.05 402.58,-433.05"/>
<polyline fill="none" stroke="black" points="418.58,-433.05 418.58,-452.05 "/>
<text text-anchor="start" x="405.58" y="-439.45" font-family="sans-serif" font-size="12.00">U</text>
<polygon fill="white" stroke="transparent" points="418.58,-433.05 418.58,-452.05 451.58,-452.05 451.58,-433.05 418.58,-433.05"/>
<polygon fill="none" stroke="black" points="418.58,-433.05 418.58,-452.05 451.58,-452.05 451.58,-433.05 418.58,-433.05"/>
<text text-anchor="start" x="421.58" y="-439.45" font-family="sans-serif" font-size="12.00">OHS</text>
</g>
</g>
</svg>
