<svg width="2000px" height="2208px"
 viewBox="0.00 0.00 606.79 670.08" xmlns="http://www.w3.org/2000/svg" xmlns:xlink="http://www.w3.org/1999/xlink">
<g id="graph0" class="graph" transform="scale(1.0 1.0) rotate(0) translate(4 666.08)">
<title>ContextMapGraph</title>
<polygon fill="white" stroke="transparent" points="-4,4 -4,-666.08 602.79,-666.08 602.79,4 -4,4"/>
<!-- AutorizacionAutenticacion -->
<g id="node1" class="node">
<title>AutorizacionAutenticacion</title>
<polygon fill="none" stroke="black" stroke-width="2" points="141.03,-659.21 129.74,-658.34 118.68,-657.35 107.9,-656.26 97.44,-655.06 87.34,-653.77 77.64,-652.39 68.39,-650.91 59.61,-649.35 51.34,-647.71 43.62,-646 36.46,-644.21 29.9,-642.37 23.96,-640.46 18.65,-638.5 13.98,-636.49 9.98,-634.43 6.64,-632.34 3.97,-630.22 1.98,-628.07 0.65,-625.89 -0.01,-623.71 -0.02,-621.51 0.61,-619.3 1.87,-617.1 3.74,-614.9 6.21,-612.71 9.24,-610.54 12.81,-608.39 16.9,-606.26 21.49,-604.17 26.53,-602.11 32.01,-600.09 37.89,-598.11 44.15,-596.19 50.74,-594.32 57.65,-592.5 64.83,-590.75 72.26,-589.07 79.91,-587.46 87.75,-585.92 95.75,-584.47 103.88,-583.09 112.13,-581.8 120.45,-580.6 128.84,-579.49 137.28,-578.48 145.73,-577.57 154.18,-576.76 162.62,-576.05 171.03,-575.46 179.4,-574.97 187.71,-574.59 195.96,-574.32 204.13,-574.17 212.22,-574.13 220.21,-574.21 228.11,-574.4 235.9,-574.71 243.59,-575.14 251.16,-575.69 258.61,-576.35 265.94,-577.13 273.14,-578.02 280.21,-579.03 287.14,-580.14 293.92,-581.36 300.55,-582.69 307.03,-584.12 313.33,-585.65 319.47,-587.28 325.41,-588.99 331.16,-590.8 336.69,-592.68 342,-594.64 347.08,-596.68 351.9,-598.78 356.45,-600.93 360.71,-603.15 364.66,-605.41 368.29,-607.71 371.58,-610.04 374.5,-612.4 377.04,-614.79 379.17,-617.18 380.88,-619.58 382.15,-621.97 382.95,-624.36 383.27,-626.73 383.1,-629.08 382.42,-631.39 381.2,-633.66 379.45,-635.89 377.15,-638.07 374.29,-640.18 370.87,-642.23 366.88,-644.2 362.32,-646.1 357.19,-647.91 351.5,-649.63 345.25,-651.26 338.47,-652.78 331.15,-654.21 323.31,-655.52 314.98,-656.72 306.18,-657.8 296.94,-658.77 287.28,-659.61 277.23,-660.33 266.83,-660.93 256.11,-661.4 245.12,-661.74 233.9,-661.96 222.48,-662.05 210.92,-662.01 199.25,-661.85 187.52,-661.56 175.79,-661.15 164.1,-660.62 152.49,-659.98 141.03,-659.21"/>
<text text-anchor="middle" x="199.02" y="-613.81" font-family="sans-serif" font-size="16.00">AutorizacionAutenticacion</text>
</g>
<!-- Seguridad -->
<g id="node2" class="node">
<title>Seguridad</title>
<polygon fill="none" stroke="black" stroke-width="2" points="167.51,-437.09 173.03,-436.06 178.6,-435.14 184.2,-434.35 189.81,-433.68 195.41,-433.15 200.97,-432.75 206.48,-432.49 211.91,-432.36 217.24,-432.38 222.47,-432.53 227.56,-432.83 232.5,-433.27 237.29,-433.84 241.9,-434.56 246.32,-435.41 250.54,-436.39 254.55,-437.51 258.34,-438.75 261.91,-440.12 265.25,-441.6 268.34,-443.2 271.2,-444.91 273.82,-446.72 276.19,-448.62 278.32,-450.61 280.21,-452.69 281.85,-454.83 283.26,-457.05 284.43,-459.32 285.37,-461.65 286.09,-464.01 286.59,-466.42 286.87,-468.84 286.94,-471.29 286.81,-473.75 286.49,-476.2 285.97,-478.66 285.27,-481.09 284.4,-483.51 283.35,-485.9 282.14,-488.25 280.77,-490.55 279.25,-492.81 277.57,-495.01 275.75,-497.14 273.8,-499.21 271.7,-501.2 269.47,-503.12 267.11,-504.95 264.63,-506.7 262.02,-508.35 259.29,-509.91 256.43,-511.37 253.46,-512.73 250.37,-513.99 247.17,-515.15 243.85,-516.2 240.42,-517.14 236.88,-517.98 233.23,-518.71 229.48,-519.33 225.63,-519.84 221.67,-520.24 217.63,-520.54 213.49,-520.72 209.27,-520.81 204.97,-520.79 200.6,-520.66 196.17,-520.43 191.68,-520.1 187.14,-519.67 182.57,-519.15 177.98,-518.53 173.37,-517.81 168.76,-517.01 164.16,-516.11 159.6,-515.12 155.07,-514.05 150.6,-512.9 146.2,-511.67 141.9,-510.35 137.69,-508.96 133.62,-507.5 129.68,-505.97 125.9,-504.37 122.3,-502.7 118.89,-500.97 115.69,-499.18 112.71,-497.33 109.97,-495.43 107.49,-493.48 105.28,-491.48 103.34,-489.44 101.71,-487.37 100.38,-485.25 99.36,-483.11 98.67,-480.95 98.3,-478.76 98.28,-476.56 98.59,-474.34 99.24,-472.13 100.24,-469.91 101.57,-467.7 103.25,-465.5 105.25,-463.32 107.59,-461.16 110.24,-459.04 113.2,-456.95 116.46,-454.9 120.01,-452.91 123.83,-450.97 127.9,-449.09 132.22,-447.28 136.75,-445.55 141.49,-443.9 146.41,-442.34 151.5,-440.87 156.72,-439.51 162.07,-438.24 167.51,-437.09"/>
<text text-anchor="middle" x="199.02" y="-474.42" font-family="sans-serif" font-size="16.00">Seguridad</text>
</g>
<!-- AutorizacionAutenticacion&#45;&gt;Seguridad -->
<g id="edge1" class="edge">
<title>AutorizacionAutenticacion&#45;&gt;Seguridad</title>
<path fill="none" stroke="black" stroke-width="2" d="M199.02,-573.89C199.02,-557.04 199.02,-537.73 199.02,-520.97"/>
<text text-anchor="middle" x="274.52" y="-545.55" font-family="sans-serif" font-size="12.00"> &#160;&#160;&#160;&#160;&#160;&#160;&#160;&#160;&#160;&#160;&#160;&#160;&#160;&#160;&#160;&#160;&#160;&#160;&#160;&#160;&#160;&#160;&#160;&#160;&#160;&#160;&#160;&#160;&#160;&#160;&#160;&#160;&#160;&#160;&#160;&#160;&#160;&#160;&#160;</text>
<polygon fill="white" stroke="transparent" points="192.02,-511.97 192.02,-528.97 206.02,-528.97 206.02,-511.97 192.02,-511.97"/>
<text text-anchor="start" x="194.02" y="-517.37" font-family="sans-serif" font-size="12.00">D</text>
<polygon fill="white" stroke="transparent" points="192.02,-564.89 192.02,-581.89 206.02,-581.89 206.02,-564.89 192.02,-564.89"/>
<text text-anchor="start" x="194.02" y="-570.29" font-family="sans-serif" font-size="12.00">U</text>
</g>
<!-- GestionPagos -->
<g id="node3" class="node">
<title>GestionPagos</title>
<polygon fill="none" stroke="black" stroke-width="2" points="121.38,-366.46 116.35,-364.44 111.56,-362.34 107.04,-360.17 102.8,-357.95 98.86,-355.68 95.25,-353.38 91.97,-351.04 89.04,-348.68 86.47,-346.3 84.28,-343.92 82.46,-341.54 81.04,-339.16 80.01,-336.8 79.38,-334.46 79.15,-332.15 79.32,-329.87 79.89,-327.64 80.85,-325.44 82.21,-323.3 83.94,-321.21 86.04,-319.19 88.5,-317.22 91.32,-315.32 94.46,-313.49 97.93,-311.73 101.7,-310.04 105.76,-308.44 110.08,-306.91 114.65,-305.46 119.45,-304.09 124.45,-302.81 129.64,-301.6 134.99,-300.49 140.49,-299.46 146.11,-298.51 151.82,-297.65 157.62,-296.88 163.47,-296.19 169.36,-295.6 175.27,-295.09 181.17,-294.66 187.05,-294.33 192.9,-294.09 198.69,-293.93 204.4,-293.87 210.03,-293.89 215.56,-294.01 220.98,-294.22 226.28,-294.52 231.43,-294.91 236.45,-295.39 241.31,-295.97 246,-296.64 250.53,-297.4 254.89,-298.26 259.06,-299.21 263.06,-300.26 266.86,-301.39 270.48,-302.62 273.9,-303.95 277.13,-305.36 280.17,-306.86 283.01,-308.45 285.65,-310.13 288.09,-311.89 290.34,-313.73 292.38,-315.65 294.23,-317.64 295.87,-319.7 297.32,-321.83 298.56,-324.02 299.6,-326.27 300.44,-328.56 301.06,-330.9 301.49,-333.28 301.7,-335.68 301.7,-338.11 301.49,-340.56 301.06,-343.02 300.41,-345.47 299.54,-347.92 298.45,-350.36 297.13,-352.76 295.58,-355.14 293.8,-357.47 291.78,-359.75 289.53,-361.97 287.04,-364.13 284.32,-366.21 281.35,-368.2 278.15,-370.1 274.72,-371.89 271.05,-373.58 267.15,-375.16 263.03,-376.61 258.68,-377.94 254.12,-379.13 249.35,-380.19 244.38,-381.1 239.23,-381.86 233.89,-382.48 228.39,-382.94 222.74,-383.25 216.95,-383.41 211.04,-383.4 205.03,-383.25 198.93,-382.94 192.76,-382.48 186.55,-381.86 180.3,-381.1 174.06,-380.2 167.83,-379.15 161.64,-377.98 155.51,-376.67 149.47,-375.24 143.54,-373.69 137.74,-372.03 132.1,-370.27 126.64,-368.41 121.38,-366.46"/>
<text text-anchor="middle" x="199.02" y="-331.87" font-family="sans-serif" font-size="16.00">GestionPagos</text>
</g>
<!-- Seguridad&#45;&gt;GestionPagos -->
<g id="edge2" class="edge">
<title>Seguridad&#45;&gt;GestionPagos</title>
<path fill="none" stroke="black" stroke-width="2" d="M199.02,-432.75C199.02,-416.99 199.02,-399.21 199.02,-383.28"/>
<text text-anchor="middle" x="274.52" y="-404.69" font-family="sans-serif" font-size="12.00"> &#160;&#160;&#160;&#160;&#160;&#160;&#160;&#160;&#160;&#160;&#160;&#160;&#160;&#160;&#160;&#160;&#160;&#160;&#160;&#160;&#160;&#160;&#160;&#160;&#160;&#160;&#160;&#160;&#160;&#160;&#160;&#160;&#160;&#160;&#160;&#160;&#160;&#160;&#160;</text>
<polygon fill="white" stroke="transparent" points="180.02,-373.28 180.02,-392.28 196.02,-392.28 196.02,-373.28 180.02,-373.28"/>
<polyline fill="none" stroke="black" points="196.02,-373.28 196.02,-392.28 "/>
<text text-anchor="start" x="183.02" y="-379.68" font-family="sans-serif" font-size="12.00">D</text>
<polygon fill="white" stroke="transparent" points="196.02,-373.28 196.02,-392.28 218.02,-392.28 218.02,-373.28 196.02,-373.28"/>
<polygon fill="none" stroke="black" points="196.02,-373.28 196.02,-392.28 218.02,-392.28 218.02,-373.28 196.02,-373.28"/>
<text text-anchor="start" x="199.02" y="-379.68" font-family="sans-serif" font-size="12.00">CF</text>
<polygon fill="white" stroke="transparent" points="181.02,-422.75 181.02,-441.75 197.02,-441.75 197.02,-422.75 181.02,-422.75"/>
<polyline fill="none" stroke="black" points="197.02,-422.75 197.02,-441.75 "/>
<text text-anchor="start" x="184.02" y="-429.15" font-family="sans-serif" font-size="12.00">U</text>
<polygon fill="white" stroke="transparent" points="197.02,-422.75 197.02,-441.75 218.02,-441.75 218.02,-422.75 197.02,-422.75"/>
<polygon fill="none" stroke="black" points="197.02,-422.75 197.02,-441.75 218.02,-441.75 218.02,-422.75 197.02,-422.75"/>
<text text-anchor="start" x="200.02" y="-429.15" font-family="sans-serif" font-size="12.00">PL</text>
</g>
<!-- GestionAlquileres -->
<g id="node4" class="node">
<title>GestionAlquileres</title>
<polygon fill="none" stroke="black" stroke-width="2" points="379.21,-233.67 371.29,-234.8 363.27,-235.82 355.2,-236.71 347.11,-237.48 339.02,-238.11 330.96,-238.6 322.97,-238.96 315.08,-239.18 307.31,-239.25 299.69,-239.19 292.25,-238.98 285,-238.62 277.98,-238.12 271.19,-237.48 264.67,-236.7 258.42,-235.78 252.46,-234.73 246.81,-233.54 241.47,-232.23 236.46,-230.79 231.78,-229.24 227.44,-227.57 223.45,-225.8 219.79,-223.93 216.48,-221.96 213.52,-219.91 210.9,-217.78 208.62,-215.58 206.67,-213.31 205.06,-210.99 203.76,-208.62 202.79,-206.22 202.13,-203.78 201.76,-201.32 201.69,-198.85 201.91,-196.38 202.4,-193.9 203.16,-191.44 204.18,-189 205.45,-186.58 206.97,-184.2 208.72,-181.86 210.71,-179.57 212.91,-177.33 215.33,-175.15 217.97,-173.04 220.81,-171 223.85,-169.03 227.09,-167.15 230.53,-165.36 234.15,-163.65 237.97,-162.04 241.97,-160.52 246.15,-159.1 250.52,-157.78 255.06,-156.56 259.78,-155.45 264.67,-154.44 269.74,-153.54 274.97,-152.75 280.37,-152.06 285.93,-151.48 291.64,-151.01 297.5,-150.65 303.5,-150.39 309.63,-150.23 315.89,-150.18 322.27,-150.23 328.74,-150.39 335.31,-150.64 341.96,-150.99 348.67,-151.44 355.42,-151.99 362.21,-152.63 369,-153.36 375.79,-154.19 382.54,-155.1 389.24,-156.1 395.87,-157.18 402.4,-158.35 408.81,-159.59 415.07,-160.92 421.16,-162.32 427.05,-163.79 432.72,-165.34 438.14,-166.96 443.28,-168.64 448.13,-170.38 452.66,-172.19 456.85,-174.05 460.67,-175.97 464.1,-177.94 467.12,-179.96 469.72,-182.02 471.88,-184.12 473.59,-186.25 474.82,-188.42 475.58,-190.61 475.85,-192.82 475.63,-195.05 474.91,-197.29 473.7,-199.54 471.98,-201.78 469.78,-204.02 467.08,-206.25 463.91,-208.46 460.27,-210.64 456.18,-212.79 451.65,-214.9 446.7,-216.97 441.34,-218.98 435.61,-220.93 429.52,-222.82 423.1,-224.64 416.37,-226.38 409.37,-228.03 402.12,-229.59 394.66,-231.06 387.01,-232.42 379.21,-233.67"/>
<text text-anchor="middle" x="329.02" y="-189.07" font-family="sans-serif" font-size="16.00">GestionAlquileres</text>
</g>
<!-- GestionPagos&#45;&gt;GestionAlquileres -->
<g id="edge3" class="edge">
<title>GestionPagos&#45;&gt;GestionAlquileres</title>
<path fill="none" stroke="black" stroke-width="2" d="M235.58,-295.08C251.73,-277.59 270.79,-256.94 287.47,-238.87"/>
<text text-anchor="middle" x="343.52" y="-260.46" font-family="sans-serif" font-size="12.00"> &#160;&#160;&#160;&#160;&#160;&#160;&#160;&#160;&#160;&#160;&#160;&#160;&#160;&#160;&#160;&#160;&#160;&#160;&#160;&#160;&#160;&#160;&#160;&#160;&#160;&#160;&#160;&#160;&#160;&#160;&#160;&#160;&#160;&#160;&#160;&#160;&#160;&#160;&#160;</text>
<polygon fill="white" stroke="transparent" points="280.47,-229.87 280.47,-246.87 294.47,-246.87 294.47,-229.87 280.47,-229.87"/>
<text text-anchor="start" x="282.47" y="-235.27" font-family="sans-serif" font-size="12.00">D</text>
<polygon fill="white" stroke="transparent" points="228.58,-286.08 228.58,-303.08 242.58,-303.08 242.58,-286.08 228.58,-286.08"/>
<text text-anchor="start" x="230.58" y="-291.48" font-family="sans-serif" font-size="12.00">U</text>
</g>
<!-- GestionVehiculos -->
<g id="node5" class="node">
<title>GestionVehiculos</title>
<polygon fill="none" stroke="black" stroke-width="2" points="65.09,-62.63 62.31,-59.92 59.88,-57.2 57.82,-54.47 56.14,-51.73 54.85,-49.01 53.95,-46.31 53.44,-43.64 53.35,-41.01 53.66,-38.44 54.38,-35.92 55.51,-33.47 57.04,-31.1 58.98,-28.8 61.32,-26.6 64.06,-24.5 67.17,-22.49 70.67,-20.59 74.53,-18.8 78.74,-17.13 83.28,-15.57 88.15,-14.13 93.33,-12.81 98.8,-11.61 104.53,-10.53 110.52,-9.57 116.73,-8.73 123.15,-8.01 129.76,-7.41 136.52,-6.92 143.43,-6.54 150.45,-6.28 157.56,-6.12 164.74,-6.07 171.97,-6.12 179.21,-6.27 186.44,-6.51 193.65,-6.85 200.81,-7.27 207.89,-7.78 214.88,-8.37 221.76,-9.03 228.49,-9.77 235.07,-10.59 241.48,-11.47 247.69,-12.43 253.69,-13.45 259.47,-14.53 265.01,-15.67 270.3,-16.87 275.33,-18.14 280.08,-19.45 284.54,-20.83 288.71,-22.26 292.59,-23.74 296.15,-25.28 299.4,-26.87 302.33,-28.5 304.95,-30.19 307.24,-31.93 309.2,-33.72 310.84,-35.55 312.16,-37.43 313.15,-39.36 313.82,-41.32 314.17,-43.33 314.21,-45.37 313.93,-47.44 313.34,-49.55 312.44,-51.68 311.25,-53.84 309.76,-56.02 307.98,-58.21 305.92,-60.41 303.58,-62.61 300.97,-64.81 298.09,-66.99 294.96,-69.17 291.57,-71.32 287.95,-73.44 284.09,-75.52 280,-77.55 275.69,-79.53 271.17,-81.45 266.45,-83.3 261.53,-85.07 256.43,-86.75 251.15,-88.34 245.7,-89.82 240.11,-91.2 234.36,-92.45 228.48,-93.58 222.48,-94.58 216.37,-95.45 210.16,-96.16 203.86,-96.73 197.49,-97.15 191.06,-97.41 184.59,-97.51 178.09,-97.44 171.58,-97.22 165.07,-96.82 158.57,-96.27 152.12,-95.54 145.71,-94.66 139.38,-93.61 133.13,-92.41 126.99,-91.05 120.97,-89.55 115.1,-87.9 109.39,-86.12 103.86,-84.21 98.52,-82.18 93.41,-80.03 88.52,-77.78 83.89,-75.43 79.53,-73 75.46,-70.49 71.68,-67.92 68.22,-65.29 65.09,-62.63"/>
<text text-anchor="middle" x="188.02" y="-45.04" font-family="sans-serif" font-size="16.00">GestionVehiculos</text>
</g>
<!-- GestionAlquileres&#45;&gt;GestionVehiculos -->
<g id="edge4" class="edge">
<title>GestionAlquileres&#45;&gt;GestionVehiculos</title>
<path fill="none" stroke="black" stroke-width="2" d="M288.62,-151.17C270.63,-133.05 249.43,-111.69 231.14,-93.27"/>
<text text-anchor="middle" x="297.52" y="-119.07" font-family="sans-serif" font-size="12.00">Partnership</text>
</g>
<!-- GestionClientes -->
<g id="node6" class="node">
<title>GestionClientes</title>
<polygon fill="none" stroke="black" stroke-width="2" points="458.13,-92.43 450.25,-92.19 442.46,-91.83 434.78,-91.35 427.24,-90.76 419.88,-90.05 412.72,-89.23 405.8,-88.3 399.13,-87.26 392.74,-86.12 386.66,-84.87 380.91,-83.53 375.5,-82.09 370.46,-80.55 365.79,-78.94 361.52,-77.23 357.64,-75.45 354.18,-73.6 351.13,-71.68 348.5,-69.7 346.29,-67.66 344.5,-65.57 343.14,-63.43 342.18,-61.25 341.63,-59.04 341.49,-56.8 341.73,-54.54 342.35,-52.27 343.34,-49.98 344.68,-47.69 346.36,-45.41 348.36,-43.13 350.67,-40.87 353.27,-38.63 356.14,-36.42 359.26,-34.24 362.62,-32.1 366.2,-30.01 369.99,-27.97 373.96,-25.99 378.1,-24.07 382.39,-22.22 386.82,-20.44 391.38,-18.74 396.04,-17.12 400.81,-15.59 405.66,-14.15 410.58,-12.8 415.57,-11.55 420.62,-10.41 425.71,-9.37 430.84,-8.44 436.01,-7.62 441.2,-6.91 446.41,-6.32 451.64,-5.84 456.88,-5.48 462.14,-5.24 467.39,-5.12 472.65,-5.12 477.91,-5.24 483.16,-5.48 488.4,-5.84 493.63,-6.32 498.85,-6.91 504.04,-7.62 509.2,-8.44 514.33,-9.37 519.43,-10.41 524.47,-11.55 529.46,-12.8 534.38,-14.15 539.23,-15.59 544,-17.12 548.67,-18.74 553.22,-20.44 557.65,-22.22 561.95,-24.07 566.09,-25.99 570.06,-27.97 573.84,-30.01 577.42,-32.1 580.78,-34.24 583.91,-36.42 586.78,-38.63 589.37,-40.87 591.68,-43.13 593.68,-45.41 595.36,-47.69 596.7,-49.98 597.69,-52.27 598.31,-54.54 598.56,-56.8 598.41,-59.04 597.86,-61.25 596.91,-63.43 595.54,-65.57 593.75,-67.66 591.54,-69.7 588.92,-71.68 585.87,-73.6 582.4,-75.45 578.53,-77.23 574.25,-78.94 569.59,-80.55 564.54,-82.09 559.13,-83.53 553.38,-84.87 547.3,-86.12 540.91,-87.26 534.25,-88.3 527.32,-89.23 520.16,-90.05 512.8,-90.76 505.26,-91.35 497.58,-91.83 489.79,-92.19 481.92,-92.43 473.99,-92.55 466.05,-92.55 458.13,-92.43"/>
<text text-anchor="middle" x="470.02" y="-45.04" font-family="sans-serif" font-size="16.00">GestionClientes</text>
</g>
<!-- GestionAlquileres&#45;&gt;GestionClientes -->
<g id="edge5" class="edge">
<title>GestionAlquileres&#45;&gt;GestionClientes</title>
<path fill="none" stroke="black" stroke-width="2" d="M367.55,-153.06C386.63,-133.84 409.67,-110.62 429.07,-91.08"/>
<text text-anchor="middle" x="437.52" y="-119.07" font-family="sans-serif" font-size="12.00">Partnership</text>
</g>
<!-- CatalogoAutos -->
<g id="node7" class="node">
<title>CatalogoAutos</title>
<polygon fill="none" stroke="black" stroke-width="2" points="449.74,-379.32 442.27,-379.13 434.87,-378.83 427.57,-378.4 420.4,-377.85 413.39,-377.19 406.57,-376.42 399.96,-375.53 393.6,-374.53 387.49,-373.43 381.67,-372.22 376.16,-370.91 370.97,-369.51 366.12,-368.01 361.62,-366.42 357.49,-364.75 353.74,-362.99 350.37,-361.16 347.39,-359.26 344.81,-357.3 342.63,-355.27 340.84,-353.19 339.44,-351.07 338.44,-348.9 337.82,-346.69 337.58,-344.45 337.7,-342.19 338.19,-339.91 339.02,-337.62 340.19,-335.32 341.68,-333.03 343.47,-330.74 345.55,-328.46 347.91,-326.21 350.53,-323.98 353.39,-321.78 356.48,-319.63 359.78,-317.51 363.27,-315.45 366.94,-313.44 370.78,-311.5 374.76,-309.62 378.88,-307.81 383.12,-306.08 387.47,-304.44 391.91,-302.88 396.44,-301.41 401.05,-300.03 405.72,-298.75 410.45,-297.58 415.23,-296.5 420.05,-295.54 424.9,-294.69 429.79,-293.95 434.7,-293.32 439.64,-292.81 444.59,-292.42 449.56,-292.15 454.53,-292 459.52,-291.96 464.5,-292.05 469.49,-292.26 474.48,-292.58 479.46,-293.02 484.42,-293.58 489.37,-294.26 494.31,-295.05 499.21,-295.94 504.09,-296.95 508.92,-298.06 513.7,-299.28 518.43,-300.59 523.09,-302 527.68,-303.5 532.17,-305.09 536.57,-306.76 540.85,-308.51 545,-310.34 549.02,-312.23 552.87,-314.19 556.55,-316.2 560.04,-318.27 563.32,-320.38 566.38,-322.54 569.2,-324.73 571.76,-326.96 574.05,-329.2 576.06,-331.46 577.75,-333.74 579.13,-336.02 580.17,-338.3 580.86,-340.57 581.19,-342.83 581.16,-345.07 580.74,-347.28 579.93,-349.46 578.73,-351.61 577.14,-353.71 575.14,-355.76 572.74,-357.76 569.93,-359.7 566.74,-361.57 563.15,-363.38 559.17,-365.1 554.82,-366.75 550.11,-368.31 545.05,-369.79 539.66,-371.17 533.96,-372.45 527.96,-373.64 521.69,-374.72 515.17,-375.69 508.42,-376.56 501.48,-377.31 494.36,-377.95 487.11,-378.48 479.74,-378.88 472.28,-379.17 464.78,-379.34 457.26,-379.39 449.74,-379.32"/>
<text text-anchor="middle" x="459.02" y="-331.87" font-family="sans-serif" font-size="16.00">CatalogoAutos</text>
</g>
<!-- CatalogoAutos&#45;&gt;GestionAlquileres -->
<g id="edge6" class="edge">
<title>CatalogoAutos&#45;&gt;GestionAlquileres</title>
<path fill="none" stroke="black" stroke-width="2" d="M444.37,-292.32C438.88,-280.12 431.8,-267.34 423.02,-257.06 414.98,-247.64 405.2,-239.03 395.03,-231.4"/>
<text text-anchor="middle" x="506.52" y="-260.46" font-family="sans-serif" font-size="12.00"> &#160;&#160;&#160;&#160;&#160;&#160;&#160;&#160;&#160;&#160;&#160;&#160;&#160;&#160;&#160;&#160;&#160;&#160;&#160;&#160;&#160;&#160;&#160;&#160;&#160;&#160;&#160;&#160;&#160;&#160;&#160;&#160;&#160;&#160;&#160;&#160;&#160;&#160;&#160;</text>
<polygon fill="white" stroke="transparent" points="388.03,-222.4 388.03,-239.4 402.03,-239.4 402.03,-222.4 388.03,-222.4"/>
<text text-anchor="start" x="390.03" y="-227.8" font-family="sans-serif" font-size="12.00">D</text>
<polygon fill="white" stroke="transparent" points="420.37,-282.32 420.37,-301.32 436.37,-301.32 436.37,-282.32 420.37,-282.32"/>
<polyline fill="none" stroke="black" points="436.37,-282.32 436.37,-301.32 "/>
<text text-anchor="start" x="423.37" y="-288.72" font-family="sans-serif" font-size="12.00">U</text>
<polygon fill="white" stroke="transparent" points="436.37,-282.32 436.37,-301.32 469.37,-301.32 469.37,-282.32 436.37,-282.32"/>
<polygon fill="none" stroke="black" points="436.37,-282.32 436.37,-301.32 469.37,-301.32 469.37,-282.32 436.37,-282.32"/>
<text text-anchor="start" x="439.37" y="-288.72" font-family="sans-serif" font-size="12.00">OHS</text>
</g>
</g>
</svg>
